<?xml version="1.0" encoding="UTF-8"?>
<svg id="Layer_1" data-name="Layer 1" xmlns="http://www.w3.org/2000/svg" xmlns:xlink="http://www.w3.org/1999/xlink" version="1.1" viewBox="0 0 350 629.7">
  <defs>
    <style>
      .cls-1, .cls-2, .cls-3, .cls-4, .cls-5 {
        font-size: 12px;
      }

      .cls-1, .cls-2, .cls-3, .cls-5 {
        font-family: Unna-Bold, Unna;
        font-weight: 700;
      }

      .cls-1, .cls-6 {
        fill: #00a6d9;
      }

      .cls-7, .cls-8, .cls-9, .cls-10, .cls-11, .cls-6, .cls-12 {
        stroke-width: 0px;
      }

      .cls-7, .cls-3, .cls-13, .cls-4 {
        fill: #004a6a;
      }

      .cls-14 {
        clip-path: url(#clippath);
      }

      .cls-8 {
        fill: none;
      }

      .cls-15 {
        clip-path: url(#clippath-1);
      }

      .cls-16 {
        clip-path: url(#clippath-3);
      }

      .cls-17 {
        clip-path: url(#clippath-2);
      }

      .cls-2, .cls-11 {
        fill: #bbb8d7;
      }

      .cls-9 {
        opacity: .3;
      }

      .cls-9, .cls-12 {
        fill: #fff;
      }

      .cls-10, .cls-5 {
        fill: #5d74b7;
      }

      .cls-13 {
        font-size: 12.1px;
      }

      .cls-13, .cls-4 {
        font-family: Unna-Regular, Unna;
      }
    </style>
    <clipPath id="clippath">
      <rect class="cls-8" x="56.7" y="458.1" width="33.8" height="31"/>
    </clipPath>
    <clipPath id="clippath-1">
      <rect class="cls-8" x="119" y="480.2" width="29.5" height="29.5"/>
    </clipPath>
    <clipPath id="clippath-2">
      <rect class="cls-8" x="266.4" y="383.1" width="33.9" height="33.9"/>
    </clipPath>
    <clipPath id="clippath-3">
      <rect class="cls-8" x="233.8" y="529.4" width="37.4" height="38.2"/>
    </clipPath>
  </defs>
  <g>
    <g>
      <path class="cls-7" d="M156.2,232.4h-.4c0-.3-.2-.5-.3-.7-.1-.1-.2-.2-.4-.3s-.3,0-.6,0h-1v1.9h.5c.2,0,.4,0,.5-.1,0,0,.1-.3.2-.6h.4v1.8h-.4c0-.2,0-.4,0-.5,0,0,0-.2-.2-.2s-.2,0-.4,0h-.5v1.6c0,.2,0,.4.1.5,0,.1.3.2.6.2h.1v.4h-2.8v-.4c.3,0,.5,0,.6-.1,0,0,.1-.3.1-.5v-3.4c0-.2,0-.3,0-.4s-.1-.2-.2-.2c-.1,0-.3,0-.5,0v-.4h4.5v1.4Z"/>
      <path class="cls-7" d="M162.4,231.4c-.2,0-.4,0-.5,0s-.2.1-.2.2c0,.1,0,.3,0,.5v2c0,.4,0,.6,0,.8,0,.2,0,.4-.2.6-.2.4-.5.6-.9.8-.4.1-.7.2-1.1.2s-.5,0-.8,0c-.3,0-.5-.2-.7-.3-.2-.2-.4-.3-.5-.6,0-.1-.1-.3-.1-.4s0-.3,0-.4c0-.1,0-.3,0-.5v-2.3c0-.2,0-.4-.1-.5,0,0-.3-.1-.7-.1v-.4h2.8v.4c-.2,0-.4,0-.5,0-.1,0-.2.1-.2.2,0,0,0,.2,0,.4v2.3c0,.2,0,.4,0,.6,0,.2,0,.3.1.5,0,.2.2.4.5.5.2.1.5.2.7.2s.5,0,.8-.2.4-.3.5-.5c0-.2.1-.3.1-.5,0-.2,0-.4,0-.7v-2c0-.2,0-.3,0-.4,0,0,0-.2,0-.2s-.1-.1-.2-.1c-.1,0-.3,0-.5,0v-.4h2v.4Z"/>
      <path class="cls-7" d="M168.7,231.4c-.3,0-.4,0-.6,0-.1,0-.2.1-.2.2,0,.1,0,.3,0,.5v4.3h-.4l-3.6-4.2v3c0,.2,0,.4,0,.5s.1.2.2.2.3,0,.6,0v.4h-2v-.4c.2,0,.4,0,.5,0s.2-.1.2-.2c0-.1,0-.3,0-.5v-2.8c0-.2,0-.4,0-.5,0-.1,0-.2,0-.3,0,0-.1-.2-.2-.2-.1,0-.2,0-.4-.1v-.4h1.6l3.1,3.7v-2.5c0-.2,0-.4,0-.5,0-.1,0-.2-.2-.3-.1,0-.3,0-.5,0v-.4h2v.4Z"/>
      <path class="cls-7" d="M174.8,233.8c0,.4,0,.8-.2,1.1-.1.3-.3.6-.5.8-.2.2-.4.4-.7.5-.5.2-1.1.3-1.9.3h-2.5v-.4c.2,0,.4,0,.5,0,.1,0,.2-.1.2-.2,0,0,0-.2,0-.4v-3.5c0-.2,0-.4-.1-.5s-.3-.1-.7-.1v-.4h1.2s.2,0,.5,0,.5,0,.5,0c.4,0,.8,0,1.1,0,.3,0,.6.1.9.2.2,0,.5.2.7.4.2.2.4.4.5.6.1.2.2.5.3.7,0,.3.1.5.1.8ZM173.5,233.8c0-.6-.1-1-.3-1.4-.2-.4-.5-.6-.9-.8-.2,0-.3-.1-.5-.1-.2,0-.4,0-.8,0v3.8c0,.2,0,.4,0,.5,0,.1,0,.2.2.2.1,0,.3,0,.5,0,.7,0,1.1-.2,1.4-.7.3-.5.4-1,.4-1.6Z"/>
      <path class="cls-7" d="M178.1,236.5h-2.8v-.4c.2,0,.4,0,.5,0,.1,0,.2-.1.2-.2,0,0,0-.2,0-.4v-3.4c0-.2,0-.4-.1-.5,0,0-.3-.1-.7-.1v-.4h2.8v.4c-.2,0-.4,0-.5,0-.1,0-.2.1-.2.2,0,0,0,.2,0,.4v3.4c0,.2,0,.3,0,.4s.1.2.2.2.3,0,.5,0v.4Z"/>
      <path class="cls-7" d="M184.4,231.4c-.3,0-.4,0-.6,0-.1,0-.2.1-.2.2,0,.1,0,.3,0,.5v4.3h-.4l-3.6-4.2v3c0,.2,0,.4,0,.5s.1.2.2.2.3,0,.6,0v.4h-2v-.4c.2,0,.4,0,.5,0s.2-.1.2-.2c0-.1,0-.3,0-.5v-2.8c0-.2,0-.4,0-.5,0-.1,0-.2,0-.3,0,0-.1-.2-.2-.2-.1,0-.2,0-.4-.1v-.4h1.6l3.1,3.7v-2.5c0-.2,0-.4,0-.5,0-.1,0-.2-.2-.3-.1,0-.3,0-.5,0v-.4h2v.4Z"/>
      <path class="cls-7" d="M190.9,234.3c-.2,0-.3,0-.4,0,0,0-.1,0-.2.2,0,0,0,.2,0,.4v1.3c-.4,0-.8,0-1.3.2-.3,0-.6.1-.7.2-.2,0-.4,0-.6,0-.6,0-1.1-.1-1.5-.4-.4-.3-.7-.6-.9-1.1-.2-.4-.3-.9-.3-1.3s.1-1,.4-1.4c.2-.4.6-.8,1-1s.9-.4,1.4-.4,1.2.2,1.7.6c0-.1.1-.3.1-.5h.4v1.8s-.3,0-.3,0c0-.3-.2-.5-.3-.7-.2-.2-.4-.4-.6-.5-.2-.1-.5-.2-.8-.2s-.4,0-.6.1c-.2,0-.4.2-.6.4s-.3.4-.4.7c-.1.3-.2.7-.2,1.1s0,.7.1,1.1c0,.4.2.7.5.9.2.3.6.4,1,.4s.6,0,.8-.2c.2-.1.3-.2.4-.4,0-.2,0-.3,0-.5s0-.3,0-.4c0,0,0-.1-.2-.2-.1,0-.3,0-.5,0v-.4h2.4v.4Z"/>
    </g>
    <g>
      <path class="cls-7" d="M133.1,214.3c-.4,0-.7,0-1,.1-.3,0-.5.2-.8.4-.2.2-.4.4-.6.8-.2.3-.3.7-.5,1.2h-.2v-2.7h9.2v2.7h-.2c-.1-.5-.3-.9-.5-1.2-.2-.3-.4-.6-.6-.8-.2-.2-.5-.3-.8-.4-.3,0-.6-.1-1-.1h-.5v10.1h1.4v.2h-4.8v-.2h1.4v-10.1h-.5Z"/>
      <path class="cls-7" d="M143.2,218.3v6.1h1v.2h-3.8v-.2h1v-5.9h-1v-.2h2.8ZM141.5,214.3c.2-.2.5-.3.7-.3s.5.1.7.3c.2.2.3.5.3.7s-.1.5-.3.7c-.2.2-.5.3-.7.3s-.5-.1-.7-.3c-.2-.2-.3-.5-.3-.7s.1-.5.3-.7Z"/>
      <path class="cls-7" d="M147.9,218.3v1h0c0,0,.1-.2.2-.3,0-.1.2-.3.4-.4.2-.1.4-.2.6-.3.2,0,.5-.1.8-.1s.6,0,.9.1c.2,0,.4.2.6.3.2.1.3.2.4.4,0,.1.2.3.3.4.1-.3.3-.5.5-.6.2-.2.4-.3.6-.4.2,0,.4-.1.5-.2.2,0,.3,0,.4,0,.6,0,1,0,1.3.3.3.2.5.4.7.6.1.2.2.5.2.7,0,.3,0,.5,0,.6v4h1v.2h-3.6v-.2h.9v-4.6c0-.4,0-.7-.2-.9-.2-.2-.4-.3-.8-.3s-.2,0-.4,0c-.2,0-.3.1-.5.3-.1.1-.3.3-.4.5s-.2.4-.2.7v4.3h.9v.2h-3.6v-.2h.9v-4.7c0-.4,0-.7-.3-.9-.2-.2-.4-.3-.6-.3-.4,0-.7.2-1,.5,0,0-.1.2-.2.3,0,.1-.1.2-.1.4,0,.1,0,.3,0,.5,0,.2,0,.4,0,.6v3.6h.9v.2h-3.6v-.2h1v-5.9h-1v-.2h2.7Z"/>
      <path class="cls-7" d="M160.1,221.5c0,.4,0,.7,0,1.1,0,.4.1.7.2,1,.1.3.3.5.6.7.2.2.6.3,1,.3s.7,0,1-.2c.3-.1.5-.3.7-.5.2-.2.3-.4.4-.6,0-.2.1-.3.1-.4h.2c0,.3-.1.5-.3.7-.1.2-.3.4-.5.6-.2.2-.5.3-.8.5-.3.1-.7.2-1.1.2s-1,0-1.4-.2c-.4-.2-.8-.4-1.2-.7-.3-.3-.6-.6-.8-1.1-.2-.4-.3-.9-.3-1.4s0-.8.3-1.2c.2-.4.4-.8.7-1.1.3-.3.7-.6,1.1-.8.4-.2.9-.3,1.3-.3s.7,0,1,.2c.3.1.7.3.9.5.3.2.5.5.7.9.2.4.3.8.3,1.3h-4.3v.7ZM162.5,219.7c0-.1,0-.2,0-.4,0-.2,0-.3-.1-.5,0-.2-.2-.3-.3-.4-.1-.1-.3-.2-.6-.2-.3,0-.6,0-.8.2-.2.2-.3.4-.4.6,0,.2-.1.5-.2.8,0,.3,0,.5,0,.8h2.4v-1Z"/>
      <path class="cls-7" d="M173.6,221.1c.1-.5.2-1.1.2-1.8s0-.7,0-1c0-.3-.2-.4-.3-.6-.1-.1-.3-.2-.5-.3-.2,0-.4,0-.7,0v-.2h3v.2c-.2,0-.4,0-.6.1s-.3.1-.4.3c0,.1-.2.3-.2.5,0,.2,0,.6,0,1,0,.2,0,.4,0,.7,0,.3,0,.6-.1.8,0,.3-.1.6-.2.9,0,.3-.2.5-.4.8l.7,1.2c0,0,.1.2.2.3,0,.1.2.2.4.2s.3,0,.4-.1c0,0,.2-.2.2-.3,0-.1,0-.3.1-.4,0-.1,0-.2,0-.2s0,0,0-.1c0,0,0,0,0-.1h.2s0,0,0,0c0,0,0,0,0,.1s0,.2,0,.4c0,.2,0,.4-.2.6-.1.2-.3.4-.6.6-.3.2-.6.3-1.1.3s-.8,0-1-.3c-.2-.2-.4-.4-.6-.6-.1.1-.3.2-.4.3-.1.1-.3.2-.5.3-.2,0-.4.1-.6.2-.2,0-.5,0-.8,0-.7,0-1.4-.1-1.8-.4-.5-.2-.8-.5-1.1-.9-.3-.3-.4-.7-.5-1.1,0-.4-.1-.7-.1-.9,0-.5,0-.9.3-1.2.2-.4.4-.7.7-1,.3-.3.6-.5.9-.8.3-.2.7-.4,1-.6-.2-.4-.3-.7-.4-1,0-.3-.1-.5-.1-.8s0-.6.2-.9c.1-.3.3-.5.5-.8.2-.2.4-.4.7-.5.3-.1.5-.2.8-.2s.4,0,.5,0c.2,0,.3.1.4.3.1.1.2.3.3.5s.1.4.1.7,0,.6-.2.9c-.2.3-.5.7-1,1l2.5,4.8c.1-.2.3-.5.4-1ZM169.1,218.4c0-.1-.1-.2-.1-.3-.2.2-.4.3-.5.4-.2.1-.3.3-.4.4-.1.1-.2.3-.2.5,0,.2,0,.4,0,.6s0,.4.1.7c0,.3.2.6.3.9.1.3.3.6.4,1,.2.3.4.6.6.9.2.3.4.5.6.6.2.2.5.3.7.3s.5,0,.7-.2c.2-.1.4-.3.7-.5,0-.1-.2-.3-.2-.3,0,0-.1-.2-.2-.3l-2.2-4.3c0-.1-.1-.3-.2-.4ZM171.7,214.9c0-.2,0-.3-.2-.4,0-.1-.2-.2-.3-.3-.1,0-.3-.1-.4-.1s0,0-.2,0c-.1,0-.2,0-.3.1-.1,0-.2.2-.3.3,0,.1-.1.3-.1.6s0,.3,0,.5c0,.2.1.3.2.5,0,.2.2.4.3.5,0,.2.2.3.3.5,0,0,.2-.2.4-.3.1,0,.3-.2.4-.4.1-.1.2-.3.3-.5,0-.2.1-.4.1-.6s0-.3,0-.5Z"/>
      <path class="cls-7" d="M182,224.4v.2h-4.8v-.2h1.4v-10.1h-1.4v-.2h1.4c.5,0,1,0,1.5,0,.5,0,1,0,1.5,0s.9,0,1.4.1c.5,0,1,.2,1.4.4.4.2.8.5,1.1.8.3.4.4.8.4,1.4s0,.7-.3,1.1c-.2.3-.5.6-.9.9-.4.3-.9.4-1.4.6-.6.1-1.3.2-2,.2h-.6v4.8h1.4ZM181.1,219.4c.8,0,1.4-.2,1.8-.6.4-.4.6-1,.6-1.9s-.2-1.5-.5-2c-.3-.5-.9-.7-1.8-.7s-.2,0-.3,0c0,0-.2,0-.3,0v5.1h.5Z"/>
      <path class="cls-7" d="M189.5,214v10.4h1v.2h-3.8v-.2h1v-10.2h-1v-.2h2.8Z"/>
      <path class="cls-7" d="M197.7,224.7c-.3,0-.5,0-.7,0-.5,0-.9,0-1.1-.3-.2-.2-.4-.4-.4-.7h0c-.2.4-.4.7-.6.8-.3.1-.7.2-1.2.2s-.5,0-.7,0c-.2,0-.5-.1-.7-.2-.2-.1-.4-.3-.5-.4-.1-.2-.2-.4-.2-.7s0-.5.2-.7c.1-.2.3-.4.4-.5.2-.1.4-.2.6-.3.2,0,.5-.2.7-.2.4-.1.7-.2,1-.3.3,0,.4-.2.6-.3.1,0,.2-.2.3-.3,0-.1,0-.3,0-.5v-.9c0-.3,0-.5-.2-.7-.1-.2-.4-.3-.7-.3s-.4,0-.6.2c-.2.1-.3.3-.3.6s0,0,0,.2c0,0,0,.2,0,.2,0,0,0,.2,0,.3,0,0,0,.1,0,.2,0,.1,0,.3-.1.3,0,0-.1.1-.2.2,0,0-.2,0-.3,0-.1,0-.2,0-.3,0,0,0-.2,0-.3,0-.1,0-.2,0-.3-.1,0,0-.1-.1-.2-.2,0,0,0-.2,0-.4,0-.3,0-.5.2-.7.1-.2.3-.4.6-.5.2-.1.5-.2.8-.3.3,0,.6-.1.9-.1s.7,0,1.1,0c.3,0,.6.2.9.3.2.2.4.4.6.6.1.3.2.6.2,1v3.7c0,.2,0,.4,0,.5,0,.1.2.2.4.2s.2,0,.3,0c0,0,.2-.1.2-.2h.1c-.1.3-.3.5-.6.5ZM195.3,220.9c0,0,0,.1-.1.2,0,0-.1.1-.3.2-.2,0-.4.2-.6.3-.2,0-.4.2-.5.3-.1.1-.3.3-.4.5,0,.2-.1.4-.1.7s0,.3,0,.4c0,.2,0,.3.1.5,0,.1.2.3.3.4.1.1.3.2.5.2s.3,0,.4,0c.1,0,.2-.1.3-.3,0-.1.2-.3.2-.5,0-.2,0-.4,0-.7v-1.9h0Z"/>
      <path class="cls-7" d="M199.3,220.3c.2-.4.4-.8.7-1.1.3-.3.7-.6,1.1-.8.4-.2,1-.3,1.6-.3s.7,0,1,.1c.3,0,.6.2.8.3.2.1.4.3.5.5.1.2.2.4.2.7s0,.6-.3.7c-.2.1-.4.2-.7.2s-.4,0-.6-.1c-.2,0-.3-.3-.3-.5s0-.1,0-.2c0,0,0-.2,0-.3,0-.1,0-.2,0-.3,0,0,0-.2,0-.2,0-.2,0-.4-.3-.5-.2-.1-.4-.2-.6-.2s-.6,0-.8.3c-.2.2-.4.4-.5.7-.1.3-.2.6-.2,1,0,.4,0,.8,0,1.2s0,.8,0,1.1c0,.4.1.7.2,1,.1.3.3.6.6.8.2.2.6.3,1,.3s.7,0,1-.2c.3-.1.5-.3.7-.5.2-.2.3-.4.4-.6,0-.2.1-.3.2-.4h.2c0,.3-.1.4-.2.7-.1.2-.3.4-.4.6-.2.2-.4.3-.8.5s-.7.2-1.2.2-.3,0-.5,0c-.2,0-.5,0-.8-.2-.3,0-.5-.2-.8-.3-.3-.1-.5-.3-.8-.6-.2-.3-.4-.6-.6-.9-.1-.4-.2-.8-.2-1.3s0-.7.2-1.1Z"/>
      <path class="cls-7" d="M208.1,221.5c0,.4,0,.7,0,1.1,0,.4.1.7.2,1,.1.3.3.5.6.7.2.2.6.3,1,.3s.7,0,1-.2c.3-.1.5-.3.7-.5.2-.2.3-.4.4-.6,0-.2.1-.3.1-.4h.2c0,.3-.1.5-.3.7-.1.2-.3.4-.5.6-.2.2-.5.3-.8.5-.3.1-.7.2-1.1.2s-1,0-1.4-.2c-.4-.2-.8-.4-1.2-.7-.3-.3-.6-.6-.8-1.1-.2-.4-.3-.9-.3-1.4s0-.8.3-1.2c.2-.4.4-.8.7-1.1.3-.3.7-.6,1.1-.8.4-.2.9-.3,1.3-.3s.7,0,1,.2c.3.1.7.3.9.5.3.2.5.5.7.9.2.4.3.8.3,1.3h-4.3v.7ZM210.5,219.7c0-.1,0-.2,0-.4,0-.2,0-.3-.1-.5,0-.2-.2-.3-.3-.4-.1-.1-.3-.2-.6-.2-.3,0-.6,0-.8.2-.2.2-.3.4-.4.6,0,.2-.1.5-.2.8,0,.3,0,.5,0,.8h2.4v-1Z"/>
    </g>
    <g>
      <line class="cls-7" x1="157.4" y1="228.2" x2="184.7" y2="228.2"/>
      <rect class="cls-7" x="157.4" y="228.1" width="27.3" height=".1"/>
    </g>
    <path class="cls-6" d="M186.7,196c0,8.5-6.9,15.4-15.4,15.4s-15.4-6.9-15.4-15.4,6.9-15.4,15.4-15.4,15.4,6.9,15.4,15.4"/>
    <path class="cls-12" d="M171.6,206.2l-.3-.4c-.4-.5-2.6-3.3-2.3-4.6.2-1.1,1-2.3,2-3.5-.6-.6-1.2-1.3-1.8-1.9-2.2-2.3-4.5-4.7-4.5-6.9,0-1.5.8-3.2,2.1-4.6,1.3-1.4,3-2.2,4.5-2.2h0c3,0,6.6,3.4,6.7,6.4,0,2.2-2.2,4.8-4.3,7.3-.5.6-1.1,1.2-1.6,1.9,1,1.2,1.8,2.3,2,3.4.3,1.3-1.7,4.1-2.1,4.7l-.3.4ZM171.5,198.4c-.8,1.1-1.5,2.2-1.7,3-.1.5.8,2.1,1.8,3.5.8-1.3,1.8-3,1.6-3.6-.2-.9-.9-1.9-1.7-2.9ZM171.2,183c-1.3,0-2.7.7-3.9,1.9-1.2,1.2-1.9,2.7-1.9,4,0,1.9,2.2,4.1,4.3,6.4.6.6,1.2,1.2,1.7,1.8.5-.6,1-1.2,1.5-1.8,2.1-2.4,4.2-4.9,4.1-6.8,0-2.5-3.3-5.6-5.9-5.6h0Z"/>
    <path class="cls-12" d="M171.7,209.8h0c-2.9,0-6.2-3.2-6.3-6,0-2.1,2-4.5,4.1-6.9.5-.6,1-1.2,1.5-1.7-.9-1.1-1.7-2.2-1.9-3.2-.3-1.2,1.6-3.9,1.9-4.4l.3-.4.3.4c.4.5,2.4,3.1,2.2,4.3-.2,1-.9,2.1-1.8,3.3.5.6,1.1,1.2,1.6,1.8,2.1,2.2,4.3,4.4,4.3,6.5,0,1.4-.7,3-2,4.3-1.3,1.3-2.8,2.1-4.2,2.1ZM171.7,209h0c1.2,0,2.5-.7,3.6-1.8,1.1-1.1,1.7-2.5,1.7-3.7,0-1.7-2-3.9-4-5.9-.5-.6-1.1-1.1-1.6-1.7-.4.5-.9,1.1-1.4,1.6-1.9,2.2-3.9,4.6-3.9,6.3,0,2.4,3.1,5.2,5.5,5.2h0ZM171.3,188.6c-.8,1.2-1.6,2.7-1.5,3.3.2.8.8,1.8,1.6,2.7.8-1,1.4-2,1.6-2.8.1-.5-.7-1.9-1.7-3.2Z"/>
    <path class="cls-12" d="M171.2,210.4c-7.9,0-14.4-6.5-14.4-14.4s6.5-14.4,14.4-14.4,14.4,6.5,14.4,14.4-6.5,14.4-14.4,14.4ZM171.2,182.4c-7.5,0-13.6,6.1-13.6,13.6s6.1,13.6,13.6,13.6,13.6-6.1,13.6-13.6-6.1-13.6-13.6-13.6Z"/>
  </g>
  <g>
    <path class="cls-9" d="M320.2,466.2c2.9-.9,4-6,4-6,0,0,3.1-14.7,3.9-20,1.2-9,1.5-20.9,1.5-21.6s-.3-12.5-1.5-21.5c-.7-5.4-3.9-20-3.9-20,0,0-1.2-5.1-4-6-2.8-.9-6.6.9-6.6.9l-74.2,27.8s-.7.3-1.5,1c-.6.7-.7,1.8-.7,1.8v16.1h0v16s0,1.2.7,1.8c.7.8,1.5,1,1.5,1l74.2,27.8s3.8,1.8,6.6.9Z"/>
    <path class="cls-9" d="M74.7,530.2c-.2,3,4,6,4,6,0,0,12.4,8.5,17.1,11.2,7.9,4.5,18.7,9.3,19.5,9.6s11.7,4.5,20.4,6.7c5.2,1.4,20,4,20,4,0,0,5.2.9,7.1-1.5,1.9-2.3,1.7-6.5,1.7-6.5l2.4-79.2s0-.8-.4-1.7c-.4-.8-1.5-1.3-1.5-1.3l-14.9-6.1h0s-14.8-6.1-14.8-6.1c0,0-1.1-.4-2,0-1,.4-1.5,1-1.5,1l-53.8,58.2s-3.1,2.8-3.4,5.8Z"/>
    <path class="cls-9" d="M23.4,425.8c-2.3,1.9-1.5,7.1-1.5,7.1,0,0,2.6,14.8,3.9,20,2.2,8.8,6.4,19.9,6.7,20.6s4.9,11.5,9.4,19.3c2.7,4.7,11.1,17.1,11.1,17.1,0,0,3,4.3,6,4.1,3-.2,5.8-3.4,5.8-3.4l58.4-53.5s.6-.5,1-1.5c.3-.9,0-2,0-2l-6-14.9h0s-6-14.8-6-14.8c0,0-.5-1.1-1.3-1.5-.9-.5-1.7-.4-1.7-.4l-79.2,2s-4.2-.3-6.5,1.6Z"/>
    <path class="cls-9" d="M61.5,316.8c-3-.3-6.1,3.8-6.1,3.8,0,0-8.8,12.1-11.7,16.7-4.8,7.7-9.9,18.5-10.2,19.2s-4.8,11.5-7.3,20.2c-1.5,5.2-4.6,19.9-4.6,19.9,0,0-1,5.1,1.2,7.1,2.2,2,6.5,1.8,6.5,1.8l79.1,4.8s.8,0,1.7-.4c.8-.4,1.4-1.4,1.4-1.4l6.5-14.7h0s6.5-14.6,6.5-14.6c0,0,.4-1.1.1-2-.3-1-.9-1.5-.9-1.5l-56.5-55.5s-2.7-3.2-5.7-3.6Z"/>
    <path class="cls-9" d="M165.4,266.6c-1.9-2.3-7.1-1.5-7.1-1.5,0,0-14.8,2.5-20,3.8-8.8,2.2-20,6.3-20.7,6.6s-11.5,4.9-19.4,9.3c-4.7,2.6-17.2,11-17.2,11,0,0-4.3,3-4.1,6,.2,3,3.3,5.8,3.3,5.8l53.1,58.8s.5.6,1.5,1c.8.3,2,0,2,0l14.9-5.9h0s14.9-5.9,14.9-5.9c0,0,1.1-.5,1.5-1.3.5-.9.4-1.7.4-1.7l-1.5-79.2s.3-4.2-1.6-6.5Z"/>
    <path class="cls-9" d="M184.3,356.2c2,2.3,7.1,1.3,7.1,1.3,0,0,14.7-3.1,19.9-4.5,8.7-2.5,19.7-7,20.4-7.3s11.3-5.3,19-10c4.6-2.8,16.8-11.6,16.8-11.6,0,0,4.2-3.1,3.9-6.1-.3-2.9-3.5-5.7-3.5-5.7l-55.3-56.8s-.5-.6-1.5-.9c-.9-.3-2,.1-2,.1l-14.7,6.5h0s-14.6,6.4-14.6,6.4c0,0-1.1.5-1.4,1.3-.4,1-.4,1.7-.4,1.7l4.5,79.1s-.1,4.2,1.8,6.5Z"/>
    <path class="cls-9" d="M282.9,306.3c3,.2,5.9-4.2,5.9-4.2,0,0,8.2-12.6,10.8-17.3,4.4-8,8.9-18.9,9.2-19.7s4.2-11.8,6.3-20.6c1.2-5.3,3.6-20.1,3.6-20.1,0,0,.7-5.2-1.6-7.1-2.3-1.8-6.5-1.5-6.5-1.5l-79.2-.7s-.8,0-1.7.4c-.8.4-1.3,1.5-1.3,1.5l-5.8,15h0s-5.7,14.9-5.7,14.9c0,0-.4,1.1,0,2,.4,1,1,1.5,1,1.5l59.3,52.5s2.9,3.1,5.9,3.3Z"/>
    <path class="cls-9" d="M317.4,200.9c2.2-2,1.2-7.1,1.2-7.1,0,0-3.3-14.6-4.9-19.8-2.6-8.7-7.3-19.6-7.7-20.3s-5.5-11.2-10.3-18.9c-2.9-4.6-11.9-16.6-11.9-16.6,0,0-3.2-4.2-6.2-3.8-2.9.4-5.6,3.6-5.6,3.6l-55.9,56.2s-.6.5-.9,1.5c-.3.9.2,1.9.2,1.9l6.7,14.6h0s6.7,14.5,6.7,14.5c0,0,.5,1,1.4,1.4,1,.4,1.7.3,1.7.3l79-5.7s4.2,0,6.4-1.9Z"/>
    <path class="cls-9" d="M267,102c.2-3-4.2-5.9-4.2-5.9,0,0-12.6-8.1-17.4-10.7-8-4.3-19-8.8-19.7-9.1s-11.8-4.2-20.6-6.2c-5.3-1.2-20.1-3.5-20.1-3.5,0,0-5.2-.7-7.1,1.6-1.8,2.3-1.5,6.5-1.5,6.5l-.5,79.2s0,.8.4,1.7c.4.8,1.5,1.3,1.5,1.3l15,5.7h0s14.9,5.7,14.9,5.7c0,0,1.1.4,2,0,1-.4,1.5-1,1.5-1l52.3-59.5s3.1-2.9,3.2-5.9Z"/>
    <path class="cls-9" d="M158.3,65.5c-2-2.3-7.1-1.2-7.1-1.2,0,0-14.7,3.1-19.9,4.6-8.7,2.5-19.7,7.1-20.4,7.4s-11.3,5.3-19,10.1c-4.6,2.8-16.7,11.7-16.7,11.7,0,0-4.2,3.1-3.9,6.1.3,2.9,3.6,5.7,3.6,5.7l55.5,56.5s.5.6,1.5.9c.9.3,2-.1,2-.1l14.7-6.5h0s14.6-6.5,14.6-6.5c0,0,1.1-.5,1.4-1.4.4-1,.4-1.7.4-1.7l-4.8-79.1s.1-4.2-1.8-6.5Z"/>
    <path class="cls-9" d="M55.3,119.6c-3,0-5.7,4.4-5.7,4.4,0,0-7.6,12.9-10,17.8-4,8.2-8,19.3-8.3,20.1s-3.7,11.9-5.3,20.8c-1,5.3-2.7,20.2-2.7,20.2,0,0-.5,5.2,1.9,7,2.4,1.7,6.6,1.2,6.6,1.2l79.2-2.9s.8,0,1.7-.5c.8-.4,1.2-1.5,1.2-1.5l5.1-15.3h0s5-15.2,5-15.2c0,0,.3-1.1,0-2-.4-1-1.1-1.4-1.1-1.4l-61.7-49.8s-3-2.9-6-3Z"/>
    <path class="cls-10" d="M170.5,571.4c2.4-2.3,3.8-5.4,3.8-8.7v-82.2c2-.7,3.4-2.6,3.4-4.8s-1.8-4.6-4.1-5c-.3,0-.7,0-1,0-.9,0-1.7.2-2.4.6-1.6.9-2.7,2.6-2.7,4.5s1.4,4.1,3.4,4.8v82.2c0,2.4-1,4.6-2.7,6.2-1.8,1.7-4.1,2.5-6.5,2.3-33.7-2.3-65.1-15.3-90.6-37.6-1.8-1.6-2.9-3.8-3-6.2,0-2.4.8-4.7,2.5-6.4l62.4-62.4c2.9-2.9,7.4-3.3,10.7-.9,3.2,2.2,6.5,4.1,10.1,5.5l-1.5,4.5c-.1.4-.2.8-.2,1.1,0,1.1.5,2.1,1.3,2.8,1.2.9,2.8,1.1,4.1.3l7.8-4.5c.3-.2.6-.4.8-.6.8-.9,1.2-2.1.9-3.3,0-.2-.1-.4-.2-.6l-3.5-8.3c-.6-1.4-1.9-2.2-3.4-2.2-1.5,0-2.8,1-3.2,2.4l-1.7,5.1c-3.2-1.3-6.3-3-9.2-5-2.9-2-6.4-2.6-9.6-1.8-2,.5-3.9,1.5-5.5,3.1l-62.4,62.4c-1.5,1.5-2.6,3.4-3.1,5.5-.2,1-.4,2-.4,3s0,.3,0,.4c.1,3.3,1.6,6.4,4.1,8.6,26.1,22.7,58.1,36,92.6,38.4,3.3.2,6.6-.9,9-3.2ZM171,475.1c.2-.7.9-1.2,1.7-1.2s1.4.5,1.7,1.2v1.1c-.2.7-.9,1.2-1.7,1.2s-1.4-.5-1.7-1.2v-1.1ZM159.8,456s0-.1.2-.2c.2,0,.2,0,.2.1l2.8,6.5.8,1.8s0,0,0,0c0,0,0,.2-.1.2l-1.9,1.1-5.9,3.4s-.1,0-.3,0c-.1,0,0-.2,0-.2l1.5-4.4,1.1-3.2,1.7-5.2Z"/>
    <g>
      <path class="cls-9" d="M233.3,586.4c2.5,1.7,7.2-.5,7.2-.5,0,0,13.5-6.6,18.2-9.3,7.8-4.6,17.4-11.7,18-12.1s9.7-7.9,16-14.4c3.8-3.9,13.4-15.4,13.4-15.4,0,0,3.3-4.1,2.3-6.9-1-2.8-4.8-4.7-4.8-4.7l-67.6-41.4s-.7-.4-1.7-.5c-.9,0-1.9.6-1.9.6l-12.7,9.9h0s-12.6,9.8-12.6,9.8c0,0-.9.8-1,1.7-.2,1,0,1.8,0,1.8l23.8,75.6s.9,4.1,3.4,5.8Z"/>
      <path class="cls-10" d="M318,524.3c-.8-3.2-2.8-5.9-5.7-7.6l-71.3-40.9c.4-2.1-.5-4.3-2.5-5.4s-4.8-.7-6.4,1.1c-.2.2-.4.5-.6.8-.4.8-.6,1.6-.7,2.4,0,1.8.9,3.6,2.6,4.6s4.3.8,5.9-.6l71.3,40.9c2.1,1.2,3.5,3.1,4.1,5.5.6,2.4.1,4.8-1.2,6.8-18.8,28.1-45.7,48.8-77.6,59.9-2.3.8-4.7.6-6.8-.5-2.1-1.1-3.6-3-4.3-5.3l-23.1-85.2c-1.1-3.9.8-8.1,4.5-9.8,3.5-1.6,6.8-3.7,9.8-6l3.2,3.5c.3.3.6.5.9.7.9.5,2,.6,3,.2,1.4-.5,2.3-1.9,2.3-3.4v-9c0-.3-.1-.7-.2-1-.3-1.1-1.2-2.1-2.4-2.4-.2,0-.4-.1-.6-.1l-8.9-1.1c-1.5-.2-2.9.6-3.6,1.9-.7,1.3-.5,2.9.5,4l3.6,4c-2.7,2.1-5.7,4-9,5.5-3.2,1.5-5.4,4.2-6.3,7.4-.6,2-.6,4.2,0,6.3l23.1,85.2c.6,2.1,1.7,3.9,3.2,5.4.7.7,1.5,1.3,2.4,1.8s.2.1.4.2c2.9,1.5,6.4,1.8,9.5.7,32.7-11.4,60.1-32.5,79.3-61.2,1.9-2.8,2.5-6.2,1.7-9.4ZM234.6,476c-.5-.6-.6-1.4-.2-2.1s1.2-1,1.9-.8l.9.5c.5.6.6,1.4.2,2.1s-1.2,1-1.9.8l-.9-.5ZM212.6,476.2s-.1-.1,0-.3c0-.1.2-.1.2-.1l7,.8,1.9.2s0,0,0,0c0,0,.1.1.1.2v2.2s0,6.8,0,6.8c0,0,0,.2-.1.2-.1,0-.2,0-.2,0l-3.1-3.5-2.2-2.5-3.6-4.1Z"/>
    </g>
    <path class="cls-10" d="M320.7,360.7c-3.1-1.3-6.4-1.4-9.5,0l-75.5,32.5c-1.4-1.6-3.7-2.1-5.8-1.3s-3.5,3.4-3,5.8c0,.3.2.6.3,1,.3.8.9,1.5,1.5,2,1.4,1.1,3.4,1.5,5.2.7s3.2-3,3.1-5.1l75.5-32.5c2.2-.9,4.6-.9,6.8,0,2.2,1,3.9,2.8,4.7,5.1,11.2,31.9,11.6,65.8,1.3,98.1-.7,2.3-2.3,4.1-4.5,5.2-2.2,1-4.6,1.1-6.8.2l-82-32.7c-3.8-1.5-5.9-5.5-5.1-9.5.8-3.8,1.1-7.6,1.1-11.4l4.7-.4c.4,0,.8-.1,1.1-.3,1-.4,1.7-1.2,2-2.3.4-1.4-.1-3-1.3-3.8l-7.2-5.4c-.3-.2-.6-.4-.9-.5-1.1-.4-2.4-.3-3.3.5-.2.1-.3.3-.5.4l-6.2,6.5c-1,1.1-1.3,2.7-.6,4,.6,1.4,2,2.1,3.5,2l5.3-.5c0,3.5-.3,7-1,10.5-.7,3.4.1,6.9,2.1,9.5,1.3,1.6,3,3,5,3.8l82,32.7c2,.8,4.2,1,6.3.7,1-.2,2-.4,2.9-.8s.3-.1.4-.2c3-1.4,5.3-4,6.3-7.2,10.5-33,10-67.6-1.4-100.2-1.1-3.1-3.5-5.7-6.5-7ZM232.1,398.4c-.7,0-1.5-.3-1.8-1.1s0-1.5.5-2l1-.4c.7,0,1.5.3,1.8,1.1s0,1.5-.5,2l-1,.4ZM219,416.1c0,0-.2,0-.2-.1,0-.1,0-.2,0-.3l4.9-5.1,1.3-1.4s0,0,0,0c0,0,.2,0,.2,0l1.8,1.3,5.4,4s.1,0,0,.2c0,.1-.1.2-.2.2l-4.6.4-3.3.3-5.4.5Z"/>
    <path class="cls-6" d="M204.6,175.6c.8-.9,1.2-2,1.3-3.2,0,0,0,0,0-.1,0-2.8-2.3-5.1-5.1-5.1s-2.4.5-3.3,1.2c-5-2.9-10.4-4.8-16.2-5.8-4.1-.7-7-4.3-7-8.5v-88.1c0-2.4,1-4.6,2.7-6.2,1.8-1.7,4.1-2.5,6.5-2.3,30.7,2.1,59.4,13.1,83.6,31.8l-3.1,3.9c-.5.7-.8,1.4-.8,2.2s.2,1.3.5,1.8c.8,1.3,2.2,2,3.7,1.7l8.6-1.5h.2c1.1-.2,2-.9,2.6-1.9.3-.6.4-1.2.4-1.8l-.4-9c0-1.5-1-2.8-2.5-3.2-1.4-.5-3,0-3.9,1.2l-3.2,4c-24.7-19.1-54.1-30.3-85.5-32.5-3.3-.2-6.6.9-9,3.2-2.4,2.3-3.8,5.4-3.8,8.7v88.1c0,5.8,4.1,10.8,9.8,11.8,5.3.9,10.4,2.8,15,5.4,0,.3-.1.7-.1,1,0,2.8,2.3,5.1,5.1,5.1s2.9-.7,3.8-1.7ZM275.1,84.6s0-.1.2,0c.1,0,.2.2.2.2l.4,7.2v1.8c0,.1,0,.2,0,.2l-2.2.4-6.6,1.1s-.2,0-.2-.1c0-.1,0-.2,0-.3l3.1-3.9,2.1-2.6,3.2-4ZM200.8,170.5s0,0,0,0c.6,0,1.2.4,1.4.9.1.3.2.5.2.9,0,1-.8,1.8-1.8,1.8s-1.8-.8-1.8-1.8.8-1.8,1.8-1.8Z"/>
    <path class="cls-7" d="M226,203.6c0-2.8-2.3-5.1-5.1-5.1-1.5-5.5-4-10.7-7.3-15.5-2.3-3.3-1.9-7.8.9-10.7,0,0,0,0,0,0h0s62.4-62.4,62.4-62.4c1.7-1.7,4-2.6,6.4-2.5,2.4,0,4.6,1.1,6.2,3,20.3,23.3,32.8,51.4,36.7,81.8l-4.8.3c-1.5,0-2.8,1.1-3.2,2.5-.1.4-.2.7-.2,1.1,0,1.1.5,2.1,1.4,2.8l7.1,5.5s0,0,.1,0c1,.7,2.3.9,3.4.4.5-.2.9-.4,1.3-.8l6.3-6.4c1.1-1.1,1.3-2.6.7-4-.6-1.4-2-2.2-3.5-2.1l-5.3.3c-3.9-31.1-16.8-59.9-37.5-83.8-2.2-2.5-5.3-4-8.6-4.1-1.1,0-2.3,0-3.4.4-2.1.5-4,1.6-5.5,3.1l-62.4,62.4c-1.6,1.6-2.6,3.5-3.1,5.5-.2.9-.4,1.9-.4,2.8,0,2.3.7,4.7,2.1,6.7,3.2,4.5,5.5,9.4,6.9,14.6-1.2.9-2,2.4-2,4,0,2.8,2.3,5.1,5.1,5.1,0,0,0,0,0,0,1.3,0,2.4-.5,3.3-1.2,1.1-.9,1.8-2.3,1.8-3.9ZM335.1,194.9c0,0,.2,0,.2.1,0,0,0,0,0,.1,0,0,0,.1,0,.1l-4.8,4.9-1.5,1.5c0,0-.2,0-.3,0l-1.5-1.2-5.6-4.3s-.1,0,0-.2c0-.1.2-.2.2-.2l5-.3,3.3-.2,5.1-.3ZM222.7,203.6c0,.4-.1.7-.3,1-.3.5-.9.8-1.5.8-1,0-1.8-.8-1.8-1.8s.8-1.8,1.8-1.8.6,0,.9.2c.5.3.9.9.9,1.5Z"/>
    <path class="cls-6" d="M160.6,157.4c-2.8,0-5.1,2.2-5.2,5-5.5,1.5-10.8,3.9-15.5,7.2-3.3,2.3-7.9,1.9-10.7-1,0,0,0,0,0,0h0s-61.9-63-61.9-63c-1.7-1.7-2.6-4-2.5-6.4.1-2.4,1.2-4.6,3-6.2,23.5-20.1,51.7-32.4,82.1-36l.3,4.8c0,1.5,1.1,2.8,2.5,3.2.4.1.7.2,1.1.2,1.1,0,2.1-.5,2.8-1.4l5.6-7s0,0,0-.1c.7-1,.9-2.3.5-3.4-.2-.5-.4-.9-.8-1.3l-6.3-6.4c-1.1-1.1-2.6-1.4-4-.8-1.4.6-2.2,2-2.1,3.5l.3,5.3c-31.1,3.6-60,16.2-84.1,36.8-2.5,2.1-4,5.3-4.2,8.6,0,1.1,0,2.3.3,3.4.5,2.1,1.6,4,3.1,5.5l61.9,63c1.5,1.6,3.4,2.6,5.4,3.1.9.2,1.9.4,2.8.4,2.3,0,4.7-.7,6.7-2.1,4.5-3.1,9.4-5.4,14.7-6.7.9,1.2,2.4,2,4,2,2.8,0,5.1-2.2,5.2-5,0,0,0,0,0,0,0-1.3-.4-2.4-1.2-3.3-.9-1.1-2.3-1.8-3.9-1.8ZM152.8,48.3c0,0,0-.2.1-.2,0,0,0,0,.1,0,0,0,.1,0,.1,0l4.8,4.9,1.5,1.5c0,0,0,.2,0,.3l-1.2,1.5-4.4,5.5s0,.1-.2,0c-.1,0-.2-.2-.2-.2l-.3-5-.2-3.3-.3-5.1ZM160.6,160.7c.4,0,.7.1,1,.3.5.3.8.9.8,1.5,0,1-.8,1.8-1.8,1.8s-1.8-.8-1.8-1.8,0-.6.3-.9c.3-.5.9-.9,1.5-.9Z"/>
    <path class="cls-6" d="M124.4,179.4c-1.9,2.1-1.8,5.3.3,7.2-2.6,5.1-4.3,10.6-5.1,16.4-.5,4-3.9,7.1-7.9,7.3,0,0,0,0,0,0h0s-88.2,3.9-88.2,3.9c-2.4.1-4.7-.8-6.4-2.4-1.7-1.7-2.6-3.9-2.6-6.4.8-30.9,10.5-60.1,28.2-85.1l3.7,3c1.2.9,2.8,1.1,4.1.3.3-.2.6-.4.8-.7.7-.8,1.1-1.9.9-3l-1.5-8.9s0,0,0-.1c-.3-1.2-1.1-2.2-2.2-2.6-.5-.2-1-.3-1.5-.3l-9,.4c-1.5,0-2.8,1-3.2,2.5-.5,1.4,0,3,1.2,3.9l4.1,3.3c-18.1,25.6-28.1,55.5-28.9,87.1,0,3.3,1.2,6.5,3.6,8.8.8.8,1.7,1.5,2.7,2,1.9,1,4,1.5,6.1,1.4l88.2-3.9c2.2,0,4.2-.8,6-1.9.8-.5,1.5-1.1,2.2-1.8,1.6-1.7,2.7-3.9,3-6.4.7-5.4,2.3-10.6,4.8-15.4,1.5.1,3.1-.4,4.2-1.6,1.9-2.1,1.8-5.3-.3-7.2,0,0,0,0,0,0-.9-.9-2.1-1.3-3.3-1.3-1.4,0-2.9.5-4,1.7ZM38.1,112.2s-.1,0,0-.2c0,0,0,0,0,0,0,0,.1,0,.2,0l6.8-.3h2.1c.1-.1.2,0,.2,0l.3,1.9,1.2,6.9c0,0,0,.2-.1.2-.1,0-.2,0-.3,0l-3.9-3.1-2.6-2.1-4-3.2ZM126.9,181.7c.2-.3.5-.4.9-.5.6-.1,1.2,0,1.6.4.7.7.8,1.8.1,2.5s-1.8.8-2.5.1-.4-.5-.5-.8c-.2-.6,0-1.2.4-1.7Z"/>
    <path class="cls-7" d="M217.8,240.1c0-1.4-.6-2.7-1.5-3.6,2.8-4.9,4.7-10.3,5.7-15.9.7-4.1,4.3-7,8.5-7h88.1c2.4,0,4.6,1,6.2,2.7,1.5,1.6,2.3,3.7,2.3,5.9s0,.4,0,.6c-2.1,30.8-13.2,59.6-32,83.9l-4-3.2c-1.2-.9-2.8-1.1-4.1-.3-1.1.7-1.8,1.8-1.8,3.1,0,.2,0,.4,0,.6l1.5,8.6v.2c.2,1.1.9,2,1.9,2.5.6.3,1.2.4,1.9.4l9-.4c1.5,0,2.8-1,3.2-2.5.5-1.4,0-3-1.2-3.9l-3.9-3.1c19.3-24.8,30.5-54.2,32.7-85.7.2-3.3-.9-6.6-3.2-9-.8-.8-1.7-1.5-2.6-2.1-1.8-1.1-3.9-1.7-6.1-1.7h-88.1c-2.2,0-4.3.6-6.2,1.7-2.9,1.7-5,4.6-5.6,8.1-.9,5.3-2.8,10.4-5.4,15-.2,0-.4,0-.6,0-2.8,0-5.1,2.3-5.1,5.1s.5,2.5,1.4,3.5c.8.9,1.9,1.5,3.2,1.6.2,0,.4,0,.6,0,2.8,0,5.1-2.3,5.1-5.1ZM299.5,314.4s.1,0,0,.2c0,.1-.2.2-.2.2l-7,.3h-2c-.1.1-.2,0-.2,0l-.4-2.1-1.2-6.8s0-.2.1-.2c.1,0,.2,0,.3,0l4,3.2,2.6,2.1,3.9,3.1ZM212.7,241.8c-1,0-1.8-.8-1.8-1.8s.8-1.8,1.8-1.8,1.5.5,1.7,1.2c0,.2,0,.3,0,.5,0,.9-.7,1.6-1.5,1.7,0,0-.2,0-.3,0Z"/>
    <path class="cls-7" d="M175.8,260c.1,1.2.7,2.3,1.5,3.1.9.9,2.2,1.5,3.6,1.5,2.6,0,4.7-1.9,5.1-4.5,5.5-1.5,10.8-4,15.5-7.3,3.3-2.3,7.8-1.9,10.7.9l62.4,62.4c1.7,1.7,2.6,4,2.5,6.4,0,2.4-1.1,4.6-3,6.2-23.4,20.3-51.6,32.9-82,36.7l-.3-4.9c0-1.5-1.1-2.8-2.5-3.2-1.4-.4-3,0-3.9,1.2l-5.5,7.1s0,0,0,.1c-.4.6-.7,1.3-.7,2.1s0,.9.3,1.3c.2.4.4.9.8,1.2l6.4,6.3c1.1,1.1,2.6,1.3,4,.7,1.4-.6,2.2-2,2.1-3.5l-.3-5.1c31.2-3.9,60.1-16.7,84-37.5,2.5-2.2,4-5.3,4.1-8.6,0-1.1,0-2.3-.4-3.4-.5-2.1-1.6-4-3.1-5.5,0,0,0,0,0,0h0l-62.4-62.4c-1.6-1.6-3.4-2.6-5.5-3.1-3.2-.8-6.7-.2-9.6,1.8-4.4,3.1-9.2,5.4-14.3,6.8-.9-1.5-2.5-2.5-4.4-2.5-2.8,0-5.1,2.3-5.1,5.1s0,.4,0,.6ZM189,369.2l.3,5c0,0,0,.2-.1.2-.1,0-.2,0-.3,0l-4.7-4.7-1.6-1.6c0,0,0-.2,0-.3l1.1-1.4,4.4-5.7s0-.1.2,0c.1,0,.2.2.2.2l.3,5.1.2,3.3ZM180.9,257.7c.2,0,.3,0,.4,0,.8.2,1.3.9,1.3,1.7s-.6,1.5-1.4,1.7c0,0,0,0,0,0-.1,0-.2,0-.3,0-1,0-1.8-.8-1.8-1.8s.3-1.1.7-1.4c.3-.2.7-.4,1.1-.4Z"/>
    <path class="cls-11" d="M73.2,300.7c0-.8-.2-1.5-.5-2.2,25.3-21.4,56-33.9,89-36.2,2.4-.2,4.7.6,6.5,2.3,1.8,1.6,2.7,3.9,2.7,6.2v88.1c0,4.2-2.9,7.8-7,8.5-3.5.6-6.8,1.6-10,2.9l-2.2-4.3c-.7-1.3-2.1-2.1-3.6-1.9-1.5.2-2.7,1.2-3.1,2.7l-2.3,8.7c0,.3-.1.6-.1.9s0,0,0,.1c0,1.2.7,2.3,1.7,2.9.2.1.4.2.6.3l8.4,3.3c1.4.6,2.9.2,4-.9,1-1.1,1.2-2.7.5-4l-2.4-4.7c2.9-1.1,5.9-2,9.1-2.6,3.8-.7,6.8-3.1,8.5-6.3.8-1.6,1.3-3.5,1.3-5.5v-88.1c0-2.4-.7-4.7-2-6.7-.5-.7-1.1-1.4-1.7-2-2.4-2.3-5.7-3.4-9-3.2-33.8,2.4-65.3,15.2-91.1,37.1-.7-.3-1.4-.5-2.2-.5-2.8,0-5.1,2.3-5.1,5.1s.8,3.1,1.9,4c.9.7,2,1.1,3.2,1.1s0,0,0,0c2.8,0,5.1-2.3,5.1-5.1ZM152.4,374.6l2.5,4.9s0,0,0,.1,0,0,0,.1c-.1.1-.2,0-.3,0l-6.8-2.7-1.6-.6c-.1,0-.2-.2-.1-.3l.6-2.3,1.7-6.4s0-.2.2-.2c.2,0,.2,0,.2.1l2.1,4.1,1.5,3ZM67.2,299.2c.3-.2.6-.3.9-.3,1,0,1.8.8,1.8,1.8s0,.5-.1.7c-.1.2-.3.4-.4.6-.3.3-.8.5-1.2.5-1,0-1.8-.8-1.8-1.8s0-.2,0-.2c0-.5.4-1,.8-1.3Z"/>
    <path class="cls-11" d="M20.2,412c.9-.9,1.4-2.1,1.4-3.5,0-2.2-1.4-4-3.3-4.8,2.7-32.9,15.6-63.5,37.4-88.5,1.6-1.8,3.8-2.9,6.2-3,2.4,0,4.7.8,6.4,2.5l62.4,62.4c1.6,1.6,2.5,3.8,2.5,5.9s-.5,3.3-1.5,4.8c-2.1,3-3.9,6.2-5.3,9.5l-5.2-1.4c-1.4-.4-3,.2-3.8,1.4-.4.6-.7,1.4-.7,2.1s.2,1.4.6,2l5,7.5c.2.2.4.5.6.7.9.8,2.1,1.1,3.3.8.3,0,.5-.1.7-.3l8-4c1.3-.7,2.1-2.1,2-3.6-.2-1.5-1.2-2.7-2.6-3.1l-4.5-1.2c1.3-2.9,2.8-5.8,4.7-8.4,2-2.9,2.6-6.4,1.8-9.6-.5-2-1.5-3.9-3.1-5.5l-62.4-62.4c-1.5-1.5-3.4-2.6-5.5-3.1-1.1-.3-2.2-.4-3.4-.4-3.3.1-6.4,1.6-8.6,4.1-22.3,25.6-35.5,56.9-38.2,90.6-2.1.6-3.6,2.6-3.6,4.9s2.3,5.1,5.1,5.1.5,0,.7,0c1.2-.2,2.2-.7,3-1.6ZM133.4,402.7s.2,0,.2.2c0,0,0,0,0,0,0,.1,0,.2-.1.2l-6.3,3.2-1.7.9c-.1,0-.2,0-.3,0l-1.2-1.8-3.8-5.7s0-.1,0-.3c0-.1.2,0,.2,0h0l4.9,1.3,3.2.9,4.9,1.3ZM14.7,408.5c0-.3,0-.5.2-.8.3-.6.9-1,1.6-1s1.8.8,1.8,1.8-.8,1.8-1.8,1.8-.9-.2-1.2-.5c-.4-.3-.6-.8-.6-1.3Z"/>
    <path class="cls-11" d="M60.3,524.4c.7-.9,1.2-2,1.2-3.2,0,0,0,0,0-.1,0-2.8-2.3-5.1-5.1-5.1s-1.5.2-2.2.5c-21.3-25.2-33.7-55.9-36-88.8-.2-2.4.6-4.7,2.3-6.5,1.6-1.8,3.9-2.7,6.2-2.7h88.1c4.2,0,7.8,2.9,8.5,7,.6,3.4,1.5,6.6,2.7,9.7l-4.5,2.4c-1.2.6-1.9,1.8-1.9,3.1s0,.3,0,.5c.2,1.5,1.3,2.7,2.7,3l8.8,2c.3,0,.6,0,.9,0,1.2,0,2.3-.6,2.9-1.6.1-.2.3-.5.4-.7l3.1-8.4c.5-1.4.1-3-1-3.9-1.1-1-2.7-1.1-4-.4l-4.4,2.4c-1.1-2.8-1.9-5.7-2.4-8.7-.6-3.5-2.7-6.4-5.6-8.1-1.8-1.1-3.9-1.7-6.2-1.7H26.7c-2.2,0-4.3.6-6.1,1.7-1,.6-1.8,1.3-2.6,2.1-2.1,2.2-3.2,5.2-3.2,8.2s0,.6,0,.8c2.3,33.7,15.1,65.1,37,90.9-.3.7-.5,1.5-.5,2.3,0,2.8,2.3,5.1,5.1,5.1s2.9-.7,3.9-1.8ZM135,434.1s.1,0,.3,0c.1.1,0,.2,0,.2l-2.5,6.9-.6,1.5c0,.1-.2.2-.3.1l-2.4-.5-6.4-1.5s-.2,0-.2-.2c0-.2,0-.2.1-.2l4.2-2.3,3-1.6,4.7-2.6ZM54.9,522.1c-.2-.3-.3-.6-.3-1,0-1,.8-1.8,1.8-1.8s.4,0,.6,0c.3.1.6.3.8.6.2.3.4.7.4,1.1,0,1-.8,1.8-1.8,1.8s-.3,0-.4,0c-.4-.1-.8-.4-1-.7Z"/>
  </g>
  <text class="cls-13" transform="translate(122.7 124.2)"><tspan x="0" y="0">Idea</tspan><tspan x="-21.6" y="11.4">Development</tspan></text>
  <text class="cls-1" transform="translate(10.3 41.2)"><tspan x="0" y="0">PROJECT</tspan><tspan x="0" y="11.3">INITIATION</tspan></text>
  <text class="cls-3" transform="translate(282.2 39.3)"><tspan x="0" y="0">PROJECT</tspan><tspan x="0" y="11.3">PLANNING</tspan></text>
  <text class="cls-5" transform="translate(290.2 601.3)"><tspan x="0" y="0">PROJECT</tspan><tspan x="-.7" y="11.3">CLOSURE</tspan></text>
  <text class="cls-2" transform="translate(11.4 595.1)"><tspan x="0" y="0">PROJECT</tspan><tspan x="0" y="11.3">EXECUTION</tspan></text>
  <text class="cls-13" transform="translate(185 123.9)"><tspan x="0" y="0">Funding</tspan><tspan x="4.5" y="11.4">Match</tspan></text>
  <text class="cls-13" transform="translate(236.4 197.5)"><tspan x="0" y="0">Idea to Project</tspan></text>
  <text class="cls-13" transform="translate(259.2 264.3)"><tspan x="0" y="0">Project</tspan><tspan x="-14.9" y="11.4">Development</tspan></text>
  <text class="cls-13" transform="translate(193.9 326.7)"><tspan x="0" y="0">Project</tspan><tspan x="-3.9" y="11.4">Proposal</tspan></text>
  <text class="cls-13" transform="translate(113 326)"><tspan x="0" y="0">Contract</tspan><tspan x="-6.9" y="11.4">Negotiation</tspan></text>
  <text class="cls-13" transform="translate(52.5 384.6)"><tspan x="0" y="0">Project</tspan><tspan x="-21.8" y="11.4">Implementation</tspan></text>
  <text class="cls-13" transform="translate(54 434.6)"><tspan x="0" y="0">Project</tspan><tspan x="-21.9" y="11.4">Communication</tspan></text>
  <text class="cls-13" transform="translate(102.5 527.4)"><tspan x="0" y="0">Completion</tspan><tspan x="23.5" y="11.4">of</tspan><tspan x="11.1" y="22.8">Project</tspan></text>
  <text class="cls-4" transform="translate(272.7 433.1)"><tspan x="0" y="0">New</tspan><tspan x="-17.5" y="11.3">Possibilities</tspan></text>
  <text class="cls-13" transform="translate(233.2 510.5)"><tspan x="0" y="0">Market</tspan><tspan x="-12.4" y="11.4">Introduction</tspan></text>
  <text class="cls-13" transform="translate(35.9 198)"><tspan x="0" y="0">Brainstorming</tspan></text>
  <g>
    <g>
      <path class="cls-7" d="M283.6,147.9c.3-1.5.3-2.3.3-2.3,0,0,2.2.6.4,5.1-1.8,4.5-2.9,6.2-3,6.4-.2.2-.2-.8,0-1.2.3-.4.3-.1.5-.4.2-.2,2.6-6.5,2.3-7.3-.1-.3-.5-.3-.5-.3Z"/>
      <path class="cls-7" d="M272.1,155.1c0,.1-.1.3-.2.4l7.4,3.2c0-.1.1-.3.2-.4,0-.2.2-.4.3-.6l-7.4-3.2c0,.2-.2.4-.3.6Z"/>
      <path class="cls-7" d="M282.1,142.3c-2-.9-4.6.8-9.4,11.5l7.4,3.2c4.6-10.9,4-13.8,2-14.7Z"/>
      <path class="cls-7" d="M268.4,167.4c-.7,2.8-1,5-.6,6l1.2.5c1-.5,2.4-2.2,4-4.6l-4.6-2ZM269.2,173l-.8-.4c-.2-.7,0-2.2.4-4.1l3.1,1.3c-1.1,1.6-2,2.8-2.7,3.1Z"/>
      <path class="cls-7" d="M279,159.6l-7.4-3.2c-1.3,3.8-2.2,7.4-3,10.4l4.8,2.1c1.7-2.6,3.7-5.8,5.6-9.3Z"/>
      <path class="cls-7" d="M267.7,173.9l1,.4-.8.8c0,0-.2,0-.2,0v-1.2Z"/>
    </g>
    <rect class="cls-7" x="268.9" y="175.3" width="16.2" height="1.2"/>
  </g>
  <g>
    <polygon class="cls-7" points="262.6 234.1 268.8 229.3 273.8 232.8 281 227.1 282.2 226.1 283.1 225.4 280.4 223 282.2 222.7 283.8 222.6 290 221.9 288.1 230 285.8 227.8 281.3 231.4 276.2 235.5 274 237.2 269 233.7 262.6 238.7 262.6 234.1"/>
    <polygon class="cls-7" points="263.1 240.4 263.1 247.2 268.3 247.2 268.3 236.4 263.8 239.8 263.1 240.4"/>
    <polygon class="cls-7" points="273.3 238.8 269.5 236.2 269.5 247.2 274.6 247.2 274.6 238.9 274 239.3 273.3 238.8"/>
    <polygon class="cls-7" points="275.8 237.9 275.8 247.2 280.9 247.2 280.9 233.8 276.5 237.3 275.8 237.9"/>
    <polygon class="cls-7" points="286.4 230.7 285.7 230 282.8 232.3 282.1 232.9 282.1 247.2 287.2 247.2 287.2 231.4 287 231.1 286.4 230.7"/>
  </g>
  <g>
    <path class="cls-7" d="M210.7,283.9s0,0,0,0c0,0,0,0,0,0h0Z"/>
    <path class="cls-7" d="M227.3,280.5v23.4l-14.3,2.9c-.5.6-1.4,1-2.3,1s-1.8-.4-2.3-1l-14.3-2.9v-23.4l1.2.2v21.4l13,2.9,2,.4h.4c0,0,2.4-.4,2.4-.4l13-2.9v-21.4l1.2-.2Z"/>
    <path class="cls-7" d="M210.7,305.7s0,0,0,0l-2.4-.5-13-2.9c0,0-.2-.1-.2-.2v-23.3c0,0,0-.1,0-.2,0,0,.1,0,.2,0l13.8,3c.6.1,1.1.5,1.4.9,0,.1.1.2.2.3.3-.6.9-1.1,1.6-1.3l13.8-3c0,0,.1,0,.2,0,0,0,0,0,0,.2v23.3c0,0,0,.2-.2.2l-15.4,3.4s0,0,0,0ZM196,301.7l14.7,3.2,14.7-3.2v-22.1l-13.1,2.9c-.8.2-1.4.9-1.4,1.7,0,0,0,0,0,0,0,0,0,0,0,0,0,.1,0,.2-.2.2s-.2,0-.2-.2h0s0,0,0,0c0,0,0,0,0,0,0-.3-.1-.7-.3-1-.3-.4-.6-.6-1.1-.7l-13.1-2.9v22.1Z"/>
    <polygon class="cls-7" points="212.2 285.2 224.6 282.7 224.6 282.2 212.2 284.8 212.2 285.2"/>
    <polygon class="cls-7" points="216.3 280.9 216.4 281 216.3 281 216.3 280.9"/>
    <polygon class="cls-7" points="212.2 288.6 224.6 286 224.6 285.6 212.2 288.2 212.2 288.6"/>
    <polygon class="cls-7" points="212.2 292 224.6 289.4 224.6 289 212.2 291.5 212.2 292"/>
    <polygon class="cls-7" points="209.1 292 196.7 289.4 196.7 289 209.1 291.5 209.1 292"/>
    <polygon class="cls-7" points="212.2 295.3 224.6 292.8 224.6 292.3 212.2 294.9 212.2 295.3"/>
    <polygon class="cls-7" points="209.1 295.3 196.7 292.8 196.7 292.3 209.1 294.9 209.1 295.3"/>
    <polygon class="cls-7" points="212.2 298.7 224.6 296.1 224.6 295.7 212.2 298.3 212.2 298.7"/>
    <polygon class="cls-7" points="209.1 298.7 196.7 296.1 196.7 295.7 209.1 298.3 209.1 298.7"/>
    <polygon class="cls-7" points="212.2 302.1 224.6 299.5 224.6 299.1 212.2 301.6 212.2 302.1"/>
    <polygon class="cls-7" points="209.1 302.1 196.7 299.5 196.7 299.1 209.1 301.6 209.1 302.1"/>
    <polygon class="cls-7" points="196.7 282.2 196.7 282.7 205.6 284.5 205.6 284.1 196.7 282.2"/>
    <polygon class="cls-7" points="196.7 285.6 196.7 286 205.6 287.9 205.6 287.4 196.7 285.6"/>
    <polygon class="cls-7" points="209.1 282.3 209.1 289 208.6 288.5 208 287.9 207.7 287.6 207.4 287.8 206.3 289 206.3 281.7 209.1 282.3"/>
  </g>
  <g>
    <g>
      <path class="cls-6" d="M71.5,168.4h.3c.4,0,.8.3.8.8v8.9c0,.4-.3.8-.8.8h-.3c-.4,0-.8-.3-.8-.8v-8.9c0-.4.3-.8.8-.8Z" transform="translate(-111.7 214.1) rotate(-80)"/>
      <rect class="cls-6" x="70.8" y="166.2" width="1.8" height="10.4" rx=".8" ry=".8" transform="translate(-109.6 212.3) rotate(-80)"/>
      <rect class="cls-6" x="70.8" y="164.1" width="1.8" height="10.4" rx=".8" ry=".8" transform="translate(-107.5 210.5) rotate(-80)"/>
      <path class="cls-6" d="M68.9,174.8c0,1.3,1.3,2.4,2.8,2.4s2.5-.8,2.7-1.8l-5.5-1c0,.1,0,.3,0,.4Z"/>
    </g>
    <g>
      <path class="cls-6" d="M67.3,164.2c-.8,0-1.6-.2-2.1-.7-.7.2-2.3.4-3.7-.8-1.2-1-1.6-2.3-1.4-4.1,0-.8.6-1.6,1.3-2.2.5-.4,1.2-.7,1.8-.7,0-.5,0-1.4.6-2,.4-.5,1-.7,1.7-.7.8,0,2.2.3,2.3,2.4,0,.3-.2.5-.5.5-.3,0-.5-.2-.5-.5,0-1-.4-1.4-1.3-1.4-.4,0-.7.1-.9.4-.4.5-.4,1.4-.3,1.8,0,.2,0,.3-.1.4-.1.1-.3.2-.4.1-.5,0-1.1.1-1.6.5-.5.4-.9,1-.9,1.5-.2,1.5.2,2.5,1.1,3.3,1.3,1.1,2.9.5,3,.5.2,0,.4,0,.5.1.5.5,1.2.7,2,.6.9,0,1.7-.5,2.1-1.1,1-1.4.9-3.3.9-3.3,0,0,0,0,0,0v-11.8c0-.3.2-.5.5-.5s.5.2.5.5v11.7c0,.2.1,2.3-1.1,3.9-.6.8-1.7,1.4-2.8,1.5-.1,0-.3,0-.4,0Z"/>
      <path class="cls-6" d="M60.4,159.1s0,0-.1,0c-.8-.2-2.3-1.1-2.3-3.3,0-1.5.8-2.4,1.7-2.9-.3-.4-.7-.9-.8-1.6-.2-.8,0-1.6.6-2.5.7-1,2.2-1.4,3.6-1.1,1.2.3,2,1.1,2.1,2.3,0,.3-.2.5-.4.5-.3,0-.5-.2-.5-.4-.1-1-.9-1.3-1.4-1.4-1-.2-2.1,0-2.6.7-.4.6-.6,1.2-.4,1.7.2.9,1.1,1.5,1.1,1.5.2.1.3.3.2.5,0,.2-.2.3-.4.4-.7.1-1.7.9-1.7,2.3,0,2,1.5,2.3,1.5,2.3.3,0,.4.3.4.6,0,.2-.3.4-.5.4Z"/>
      <path class="cls-6" d="M67.9,151c-.1,0-.2,0-.3,0-1-.1-1.7-.8-1.8-1.7-.2-1,.3-2,1-2.3.5-.3,1-.3,1.5-.2.6.2.9.8.9.9.1.2,0,.5-.3.6-.2.1-.5,0-.6-.3,0,0-.1-.2-.3-.3-.2,0-.4,0-.7.1-.4.2-.6.8-.5,1.3,0,.3.3.9,1,.9.6,0,1.2-.2,1.7-.7.8-.8,1.3-2,1.2-3.3,0-1.3-1-1.9-1.5-2-.8-.3-1.7-.2-2.1.2-.7.6-.5,1.4-.5,1.4,0,.2,0,.4-.2.5-.2.1-.4,0-.6,0,0,0-1-.9-2.1-.3-.6.3-1.1,1.3-1,2.3,0,.3-.2.5-.4.5-.3,0-.5-.2-.5-.4-.2-1.4.5-2.8,1.5-3.3,1-.5,1.9-.4,2.5-.1,0-.4.3-.9.8-1.3.7-.7,2-.8,3.1-.4,1.2.5,2,1.6,2.1,2.9,0,1.6-.5,3.1-1.5,4.1-.6.6-1.4.9-2.2.9Z"/>
      <path class="cls-6" d="M70.7,161.5s0,0-.1,0c-.3,0-.4-.3-.3-.6h0c.1-.4.4-1.7,0-2.4,0-.2-.2-.3-.4-.3-.5-.1-.8,0-1.1.2-.3.3-.3.8-.3,1,0,.3,0,.5-.3.6-.3,0-.5,0-.6-.3,0-.1-.4-1.1-1.4-.9-.7.1-.8.7-.8.8,0,.4,0,.7.3.8.2.1.3.4.2.7-.1.2-.4.3-.7.2-.6-.3-.9-1.1-.8-1.8.2-.9.8-1.5,1.7-1.6.7-.1,1.3.1,1.7.4,0-.2.2-.4.4-.6.3-.4,1-.7,2-.5.4.1.8.4,1,.8.6,1.1.2,2.9.1,3.1,0,.2-.3.4-.5.4Z"/>
      <path class="cls-6" d="M71.1,157h0c-.3,0-.5-.2-.5-.5,0-1.3,0-2.6-.3-2.9,0,0-.1-.1-.3-.1-.6,0-.7.5-.7.6,0,.3-.2.5-.5.5h0c-.3,0-.5-.2-.5-.5,0-.7.4-1.6,1.6-1.6s.8.1,1,.4c.6.6.6,1.9.6,3.6,0,.3-.2.5-.5.5Z"/>
    </g>
    <g>
      <path class="cls-6" d="M76.1,164.2c-.1,0-.3,0-.4,0-1.1-.1-2.2-.7-2.8-1.5-1.2-1.6-1.1-3.7-1.1-3.9v-11.7c0-.3.2-.5.5-.5s.5.2.5.5v11.8s0,0,0,0c0,0-.1,1.9.9,3.3.4.6,1.2,1,2.1,1.1.8,0,1.5-.1,2-.6.1-.1.3-.2.5-.1,0,0,1.7.6,3-.5.9-.8,1.3-1.8,1.1-3.3,0-.6-.4-1.1-.9-1.5-.5-.4-1.1-.6-1.6-.5-.2,0-.3,0-.4-.1-.1-.1-.2-.3-.1-.4,0-.3,0-1.3-.3-1.8-.2-.2-.5-.4-.9-.4,0,0,0,0,0,0-.9,0-1.2.4-1.2,1.4,0,.3-.2.5-.5.5-.3,0-.5-.2-.5-.5,0-2.1,1.4-2.4,2.3-2.4.7,0,1.3.3,1.7.7.5.6.6,1.4.6,2,.6,0,1.2.3,1.8.7.7.6,1.2,1.4,1.3,2.2.2,1.8-.3,3.1-1.4,4.1-1.4,1.2-3,.9-3.7.8-.6.5-1.3.7-2.1.7Z"/>
      <path class="cls-6" d="M82.9,159.1c-.2,0-.4-.2-.5-.4,0-.3.1-.5.4-.6,0,0,1.5-.4,1.5-2.3,0-1.4-1-2.2-1.7-2.3-.2,0-.4-.2-.4-.4,0-.2,0-.4.2-.5,0,0,.9-.6,1.1-1.5.1-.5,0-1.1-.4-1.7-.4-.6-1.6-.9-2.6-.7-.5.1-1.3.4-1.4,1.4,0,.3-.3.5-.5.4-.3,0-.5-.3-.4-.5.1-1.1.9-2,2.1-2.3,1.4-.3,3,.1,3.6,1.1.6.8.8,1.6.6,2.5-.1.7-.5,1.2-.8,1.6.9.5,1.7,1.5,1.7,2.9,0,2.2-1.5,3.1-2.3,3.3,0,0,0,0-.1,0Z"/>
      <path class="cls-6" d="M75.5,151c-.8,0-1.5-.3-2.2-.9-1-1-1.6-2.5-1.5-4.1,0-1.3.8-2.4,2.1-2.9,1.1-.5,2.4-.3,3.1.4.5.4.7.9.8,1.3.6-.3,1.5-.4,2.5.1,1,.5,1.6,2,1.5,3.3,0,.3-.3.5-.5.4-.3,0-.5-.3-.4-.5.1-1.1-.4-2-1-2.3-1.2-.6-2.1.2-2.1.3-.2.1-.4.2-.6,0-.2-.1-.3-.3-.2-.5,0,0,.2-.8-.5-1.4-.5-.4-1.3-.5-2.1-.2-.4.2-1.4.7-1.5,2,0,1.3.4,2.5,1.2,3.3.5.5,1.1.7,1.7.7.7,0,.9-.6,1-.9,0-.5-.1-1.1-.5-1.3-.3-.1-.5-.2-.7-.1-.2,0-.3.3-.3.3-.1.2-.4.4-.6.3-.2-.1-.4-.4-.3-.6,0,0,.3-.6.9-.9.4-.2.9-.1,1.5.2.8.4,1.2,1.4,1,2.3-.2,1-.9,1.6-1.8,1.7-.1,0-.2,0-.3,0Z"/>
      <path class="cls-6" d="M72.7,161.5c-.2,0-.4-.1-.5-.4,0-.2-.5-2,.1-3.1.2-.4.6-.7,1-.8,1.1-.3,1.7.1,2,.5.2.2.3.4.4.6.4-.3,1-.6,1.7-.4.9.1,1.5.8,1.7,1.6.1.8-.2,1.5-.8,1.8-.2.1-.5,0-.7-.2-.1-.2,0-.5.2-.7.2-.1.3-.5.3-.8,0-.2-.2-.7-.8-.8-1-.2-1.4.8-1.4.9,0,.2-.4.4-.6.3-.2,0-.4-.4-.3-.6,0-.2,0-.7-.3-1-.2-.2-.6-.3-1.1-.2-.2,0-.3.1-.4.3-.4.6-.1,2,0,2.4,0,.3,0,.5-.3.6,0,0,0,0-.1,0Z"/>
      <path class="cls-6" d="M72.3,157c-.3,0-.5-.2-.5-.5,0-1.7,0-3,.6-3.6.3-.3.6-.4,1-.4,1.2,0,1.6,1,1.6,1.6,0,.3-.2.5-.5.5s-.5-.2-.5-.5c0-.2,0-.6-.7-.6s-.3,0-.3.1c-.3.3-.3,1.6-.3,2.9,0,.3-.2.5-.5.5h0Z"/>
    </g>
    <path class="cls-6" d="M75.1,168.8s0,0,0,0c-.3,0-.4-.3-.4-.6,0-.1.4-2.5,3.3-4.3.2-.1.5,0,.7.1.1.2,0,.5-.1.7-2.5,1.6-2.8,3.6-2.8,3.7,0,.2-.2.4-.5.4Z"/>
    <path class="cls-6" d="M67.9,167.5c-.2,0-.4-.1-.5-.3,0,0-.7-1.6-2.3-2.3-.2-.1-.4-.4-.3-.6.1-.2.4-.4.6-.3,2,.9,2.8,2.8,2.8,2.9.1.2,0,.5-.3.6,0,0-.1,0-.2,0Z"/>
    <path class="cls-6" d="M72.2,168.1h0c-.2,0-.3-.1-.3-.3s0-1.5.8-2.7c0-.1.3-.2.4,0,.1,0,.2.3,0,.4-.7,1-.7,2.3-.7,2.3,0,.2-.1.3-.3.3Z"/>
    <path class="cls-8" d="M73.1,165.6c-.5,0-.9-.4-.9-.9s.4-.9.9-.9.9.4.9.9-.4.9-.9.9ZM73.1,164.3c-.2,0-.3.1-.3.3s.1.3.3.3.3-.1.3-.3-.1-.3-.3-.3Z"/>
    <path class="cls-6" d="M71.2,168.1c-.2,0-.3-.1-.3-.3h0s0-1.3-.7-2.3c0-.1,0-.3,0-.4.1,0,.3,0,.4,0,.8,1.1.8,2.6.8,2.7,0,.2-.1.3-.3.3Z"/>
    <path class="cls-6" d="M70.2,165.6c-.5,0-.9-.4-.9-.9s.4-.9.9-.9.9.4.9.9-.4.9-.9.9ZM70.2,164.3c-.2,0-.3.1-.3.3s.1.3.3.3.3-.1.3-.3-.1-.3-.3-.3Z"/>
    <g>
      <path class="cls-8" d="M82.6,153.5c-.2,0-.3-.2-.4-.4,0-.2,0-.4.2-.5,0,0,.9-.6,1.1-1.5.1-.6,0-1.1-.5-1.7-.4-.6-1.6-1-2.6-.7-.5.1-1.3.5-1.4,1.5,0,.2-.3.4-.5.4-.2,0-.4-.3-.4-.5.1-1.1.9-1.9,2.1-2.2.2,0,.4,0,.6,0,0-.9-.5-1.7-1-2-1.2-.6-2.1.2-2.2.3-.1.1-.4.2-.5,0-.2-.1-.3-.3-.2-.5,0,0,.2-.8-.5-1.4-.5-.4-1.4-.5-2.2-.2-.9.4-1.4,1.1-1.5,2.1,0,1.3.4,2.6,1.2,3.3.5.5,1.1.7,1.7.7.8,0,1-.7,1-1,0-.6-.1-1.1-.5-1.3-.3-.1-.5-.2-.7-.1-.2,0-.4.3-.4.3,0,.2-.4.3-.6.2-.2,0-.3-.4-.2-.6,0,0,.3-.6.9-.8.4-.2.9-.1,1.4.2.7.4,1.2,1.3,1,2.3-.2.9-.9,1.6-1.8,1.7-.1,0-.2,0-.3,0-.7,0-1.5-.3-2.1-.9-.2-.2-.4-.4-.6-.7v3.3c.2-.1.4-.2.7-.2,1.2,0,1.6.9,1.6,1.6,0,.2-.2.5-.5.5s-.5-.2-.5-.4c0-.2,0-.7-.7-.7s-.3,0-.4.1c-.2.2-.3.8-.3,1.6v2.4c.2-.1.3-.2.5-.2,1-.3,1.6.1,2,.5.2.2.3.4.4.6.4-.3,1-.6,1.7-.5.8.1,1.5.8,1.6,1.6.1.8-.2,1.5-.7,1.8-.2.1-.5,0-.6-.2-.1-.2,0-.5.2-.6.2-.1.4-.5.3-.9,0-.2-.2-.8-.9-.9-1-.2-1.4.9-1.5,1,0,.2-.3.4-.6.3-.2,0-.4-.3-.3-.6,0-.2,0-.8-.3-1.1-.2-.3-.6-.3-1.1-.2-.2,0-.3.2-.4.3-.4.6-.1,2,0,2.4.1.4.3.8.6,1.2.4.6,1.3,1,2.1,1.1.8,0,1.5-.1,2-.6.1-.1.3-.2.5,0,0,0,1.7.6,3-.5.9-.8,1.3-1.8,1.1-3.3,0-.6-.4-1.1-.9-1.6-.5-.4-1.1-.6-1.6-.5-.1,0-.3,0-.4-.1,0-.1-.1-.2-.1-.4,0-.3,0-1.3-.4-1.8-.2-.3-.5-.4-.9-.4-.9,0-1.3.4-1.3,1.5,0,.2-.2.5-.5.4-.2,0-.4-.2-.4-.5,0-2.1,1.4-2.4,2.2-2.4.7,0,1.2.2,1.6.7.5.6.6,1.4.6,2,.6,0,1.2.3,1.8.7.5.4.9,1,1.1,1.6.5-.3,1.1-.9,1.1-2.2,0-1.4-1-2.2-1.8-2.3Z"/>
      <path class="cls-8" d="M70.2,164.3c-.2,0-.3.2-.3.3s.2.3.3.3.3-.2.3-.3-.2-.3-.3-.3Z"/>
      <path class="cls-8" d="M73.1,164.3c-.2,0-.3.2-.3.3s.2.3.3.3.3-.2.3-.3-.2-.3-.3-.3Z"/>
      <path class="cls-8" d="M68.8,148.2c-.2,0-.5,0-.6-.2,0,0-.1-.3-.4-.3-.2,0-.4,0-.7.1-.4.2-.6.8-.5,1.3,0,.3.3.9,1,1,.6,0,1.2-.2,1.7-.7.8-.8,1.3-2,1.2-3.3,0-1-.6-1.7-1.5-2.1-.8-.3-1.7-.2-2.2.2-.7.6-.5,1.4-.5,1.4,0,.2,0,.4-.2.5-.2,0-.4,0-.5,0,0,0-1-.9-2.2-.3-.5.3-1,1.1-1,2,.2,0,.4,0,.6,0,1.2.3,2,1.1,2.1,2.2,0,.2-.1.5-.4.5-.2,0-.5-.1-.5-.4-.1-1-.9-1.3-1.4-1.5-1-.2-2.2,0-2.6.7-.4.6-.6,1.2-.5,1.7.2.9,1.1,1.5,1.1,1.5.2.1.2.3.2.5,0,.2-.2.3-.4.4-.7.1-1.8.9-1.8,2.3,0,1.3.7,1.9,1.1,2.2.2-.6.6-1.2,1.1-1.6.5-.4,1.2-.7,1.8-.7,0-.5,0-1.4.6-2,.4-.5.9-.7,1.6-.7.8,0,2.2.3,2.2,2.4,0,.2-.2.5-.4.5-.3,0-.5-.2-.5-.4,0-1-.4-1.5-1.3-1.5-.4,0-.7.1-.9.4-.4.5-.4,1.5-.4,1.8,0,.1,0,.3-.1.4,0,.1-.2.2-.4.1-.5,0-1.1.1-1.6.5-.5.4-.9,1-.9,1.6-.2,1.5.2,2.5,1.1,3.3,1.3,1.1,3,.5,3,.5.2,0,.3,0,.5,0,.5.5,1.2.7,2,.6.9,0,1.7-.5,2.1-1.1.3-.4.5-.8.6-1.2.1-.5.3-1.7,0-2.4-.1-.2-.2-.3-.4-.3-.5-.1-.9,0-1.1.2-.3.3-.3.8-.3,1.1,0,.2,0,.5-.3.6-.2,0-.5,0-.6-.3,0,0-.4-1.1-1.5-1-.7.1-.8.7-.9.9,0,.4,0,.7.3.9.2.1.3.4.2.6-.1.2-.4.3-.6.2-.6-.3-.9-1-.7-1.8.2-.9.8-1.5,1.6-1.6.7-.1,1.3.1,1.7.5,0-.2.2-.4.4-.6.3-.3.9-.7,2-.5.2,0,.4.1.5.2v-2.4c0-.8-.1-1.4-.3-1.6,0,0-.1-.1-.4-.1-.7,0-.7.6-.7.7,0,.2-.2.5-.5.5h0c-.2,0-.5-.2-.5-.5,0-.6.4-1.6,1.6-1.6s.5,0,.7.2v-3.3c-.2.3-.4.5-.6.7-.6.6-1.4.9-2.1.9s-.2,0-.3,0c-.9-.1-1.6-.8-1.8-1.7-.2-1,.2-1.9,1-2.3.5-.3,1-.3,1.4-.2.6.2.9.8.9.8,0,.2,0,.5-.2.6Z"/>
    </g>
  </g>
  <g>
    <g>
      <path class="cls-6" d="M134,77.8c-4.4,0-8.1,3.6-8.1,8.1s1.2,4.2,2,5.3c.2.3.4.5.6.8.8,1.1,1.5,2.1,1.5,2.7v1.5c-.7.1-1.3.6-1.3,1.2s.5,1.1,1.3,1.2v6.5h0c0,0,4,4.5,4,4.5l4-4.4h0v-6.6c.7-.1,1.3-.6,1.3-1.2s-.5-1.1-1.3-1.2v-1.5c0-.6.8-1.6,1.5-2.7.2-.3.4-.5.6-.8.7-1.1,2-3.2,2-5.3,0-4.4-3.6-8.1-8.1-8.1ZM137.6,104.8h-1.5v-6.2h1.5s0,0,0,0v6.2ZM135.1,107.7h-2.2s0,0,0,0l-2.2-2.4h6.6l-2.2,2.4ZM134,108.9l-.7-.8h1.5l-.7.8ZM135.7,104.8h-1.5v-6.2h1.5v6.2ZM132.3,104.8v-6.2h1.5v6.2h-1.5ZM130.4,98.6s0,0,0,0h1.4v6.2h-1.5v-6.2ZM138,98.1s0,0,0,0c0,0-.1,0-.2,0,0,0-.1,0-.2,0,0,0,0,0,0,0h-7.1s0,0,0,0c0,0-.1,0-.2,0,0,0-.1,0-.2,0,0,0,0,0,0,0-.5-.1-.9-.4-.9-.8s.4-.7.9-.8c0,0,0,0,0,0,0,0,.1,0,.2,0,0,0,0,0,0,0,0,0,.1,0,.2,0h0s0,0,0,0h7.1s0,0,0,0,0,0,0,0c0,0,.1,0,.2,0,0,0,0,0,0,0,0,0,.1,0,.2,0,0,0,0,0,0,0,.5.1.9.4.9.8s-.4.7-.9.8ZM139.2,91.6c-.8,1.1-1.4,2-1.6,2.8,0,0,0,.1,0,.2h0v1.5s0,0,0,0,0,0,0,0h-2.4c0-.2,0-.6,0-1.2,0,0,0-.1,0-.2,0,0,0-.1,0-.2.1-1.9.5-5,2-6.7,0,0,0,0,0,0,.1,0,.2,0,.3,0,.4,0,.8-.3.8-.8s-.3-.8-.8-.8-.8.3-.8.8,0,.3.1.4c0,0,0,0,0,0-1.5,1.8-1.9,5-2.1,7,0,0,0,.1,0,.2,0,0,0,.1,0,.2,0,.6,0,1,0,1.2h-1.5c0-.2,0-.7,0-1.2,0,0,0-.1,0-.2,0,0,0-.1,0-.2-.1-2-.5-5.1-2.1-7,0,0,0,0,0,0,0-.1.1-.2.1-.4,0-.4-.3-.8-.8-.8s-.8.3-.8.8.3.8.8.8.2,0,.3,0c0,0,0,0,0,0,1.4,1.7,1.8,4.8,2,6.7,0,0,0,.1,0,.2,0,0,0,.1,0,.2,0,.6,0,1,0,1.2h-2.4s0,0,0,0v-1.4h0c0-.1,0-.2,0-.2-.1-.7-.8-1.7-1.6-2.8-.2-.3-.4-.5-.6-.8-.7-1-1.9-3.1-1.9-5,0-4.2,3.4-7.6,7.6-7.6s7.6,3.4,7.6,7.6-1.2,4-1.9,5c-.2.3-.4.5-.6.8ZM137.1,87c0-.2.2-.3.3-.3s.3.2.3.3-.2.3-.3.3-.3-.2-.3-.3ZM130.5,87.4c-.2,0-.3-.2-.3-.3s.2-.3.3-.3.3.2.3.3-.2.3-.3.3Z"/>
      <path class="cls-6" d="M134,109.9l-4.3-4.7v-6.5c-.8-.2-1.3-.8-1.3-1.4s.5-1.2,1.3-1.4v-1.3c0-.5-.8-1.6-1.5-2.5h0c-.2-.3-.4-.5-.5-.8-.8-1.1-2-3.3-2-5.4,0-4.6,3.7-8.3,8.3-8.3s8.3,3.7,8.3,8.3-1.3,4.3-2,5.4c-.1.2-.3.4-.4.6v.2c-.8,1-1.6,2-1.6,2.6v1.3c.8.2,1.3.8,1.3,1.4s-.5,1.2-1.3,1.4v6.4l-4.3,4.7ZM133.9,108.4h.1c0,.1.1,0,.1,0h-.2ZM133,107.4h2l1.7-1.9h-5.4l1.7,1.9ZM136.4,104.5h.9v-5.7h-.9v5.7ZM134.5,104.5h.9v-5.7h-.9v5.7ZM132.6,104.5h.9v-5.7h-.9v5.7ZM130.7,104.5h.9v-5.7h-.9v5.7ZM130.4,97.9s0,0,0,0h7.1s0,0,0,0c0,0,.1,0,.2,0,0,0,.1,0,.2,0h0c.4,0,.7-.3.7-.5s-.3-.4-.6-.5c0,0,0,0,0,0h0s0,0-.1,0c0,0,0,0,0,0,0,0-.1,0-.2,0h0s-7.1,0-7.1,0c0,0,0,0,0,0h0c0,0-.1,0-.2,0h0s0,0-.1,0h0s0,0,0,0c-.4,0-.6.3-.6.5s.3.4.6.5h0s0,0,.1,0c0,0,.1,0,.2,0h0ZM137.9,97.8h0s0,0,0,0ZM135.4,95.8h1.9v-1.2s0-.1,0-.2h0c.1-.8.8-1.8,1.6-2.9h0c.2-.3.4-.5.5-.8.7-1,1.9-3,1.9-4.9,0-4.1-3.3-7.4-7.4-7.4s-7.4,3.3-7.4,7.4,1.2,3.9,1.9,4.9c.2.3.4.5.5.8.8,1.1,1.5,2.1,1.6,2.9h0c0,0,0,.1,0,.2v1.2h1.9c0-.2,0-.5,0-.9v-.2c0,0,0-.1,0-.2-.1-1.7-.5-4.7-1.8-6.4,0,0-.2,0-.2,0-.6,0-1-.5-1-1s.5-1,1-1,1,.5,1,1,0,.2,0,.4c1.4,1.9,1.9,4.8,2,7h0c0,.1,0,.2,0,.2h0c0,.1,0,.2,0,.2,0,.4,0,.7,0,1h.9c0-.2,0-.6,0-.9v-.2s0,0,0-.2h0c.1-2.2.6-5.2,2-7.1,0-.1,0-.2,0-.4,0-.6.5-1,1-1s1,.5,1,1-.5,1-1,1-.2,0-.2,0c-1.3,1.7-1.7,4.7-1.8,6.4v.2c0,0,0,.1,0,.2h0c0,.4,0,.7,0,1ZM136.7,87.2s0,0,0,0h0ZM137.5,87s0,0,0,0,0,0,0,0,0,0,0,0,0,0,0,0ZM130.5,87s0,0,0,0,0,0,0,0,0,0,0,0,0,0,0,0Z"/>
    </g>
    <g>
      <path class="cls-6" d="M133.6,79c-3.6,0-6.5,2.9-6.5,6.5s0,.2.2.2.2,0,.2-.2c0-3.3,2.7-6.1,6.1-6.1s.2,0,.2-.2,0-.2-.2-.2Z"/>
      <path class="cls-6" d="M127.3,86c-.3,0-.5-.2-.5-.5,0-3.7,3-6.8,6.8-6.8s.5.2.5.5-.2.5-.5.5c-3.2,0-5.8,2.6-5.8,5.8s-.2.5-.5.5Z"/>
    </g>
    <g>
      <path class="cls-6" d="M134,76.7c.1,0,.2,0,.2-.2v-4.7c0-.1,0-.2-.2-.2s-.2,0-.2.2v4.7c0,.1,0,.2.2.2Z"/>
      <path class="cls-6" d="M134,77c-.3,0-.5-.2-.5-.5v-4.7c0-.3.2-.5.5-.5s.5.2.5.5v4.7c0,.3-.2.5-.5.5Z"/>
    </g>
    <g>
      <path class="cls-6" d="M127.4,79.2s0,0,.1,0,.1,0,.1,0c0,0,0-.2,0-.3l-3.3-3.3c0,0-.2,0-.3,0,0,0,0,.2,0,.3l3.3,3.3Z"/>
      <path class="cls-6" d="M127.5,79.6c-.1,0-.3,0-.3-.1l-3.3-3.3c-.2-.2-.2-.5,0-.7,0,0,.2-.1.3-.1.1,0,.3,0,.3.1l3.3,3.3c.2.2.2.5,0,.7,0,0-.2.1-.3.1ZM124.1,75.8s0,0,0,0h0Z"/>
    </g>
    <g>
      <path class="cls-6" d="M125,85.5c0-.1,0-.2-.2-.2h-4.7c-.1,0-.2,0-.2.2s0,.2.2.2h4.7c.1,0,.2,0,.2-.2Z"/>
      <path class="cls-6" d="M124.8,86h-4.7c-.3,0-.5-.2-.5-.5s.2-.5.5-.5h4.7c.3,0,.5.2.5.5s-.2.5-.5.5Z"/>
    </g>
    <g>
      <path class="cls-6" d="M127.2,91.8l-3.3,3.3c0,0,0,.2,0,.3,0,0,0,0,.1,0s.1,0,.1,0l3.3-3.3c0,0,0-.2,0-.3,0,0-.2,0-.3,0Z"/>
      <path class="cls-6" d="M124.1,95.8c-.1,0-.3,0-.3-.1-.2-.2-.2-.5,0-.7l3.3-3.3c.2-.2.5-.2.7,0,.2.2.2.5,0,.7l-3.3,3.3c0,0-.2.1-.3.1Z"/>
    </g>
    <g>
      <path class="cls-6" d="M140.5,79.3c0,0,.1,0,.1,0l3.3-3.3c0,0,0-.2,0-.3,0,0-.2,0-.3,0l-3.3,3.3c0,0,0,.2,0,.3,0,0,0,0,.1,0Z"/>
      <path class="cls-6" d="M140.5,79.6c-.1,0-.3,0-.3-.1-.2-.2-.2-.5,0-.7l3.3-3.3c.2-.2.5-.2.7,0,0,0,.1.2.1.3s0,.3-.1.3l-3.3,3.3c0,0-.2.1-.3.1Z"/>
    </g>
    <g>
      <path class="cls-6" d="M147.9,85.3h-4.7c-.1,0-.2,0-.2.2s0,.2.2.2h4.7c.1,0,.2,0,.2-.2s0-.2-.2-.2Z"/>
      <path class="cls-6" d="M147.9,86h-4.7c-.3,0-.5-.2-.5-.5s.2-.5.5-.5h4.7c.3,0,.5.2.5.5s-.2.5-.5.5Z"/>
    </g>
    <g>
      <path class="cls-6" d="M140.7,91.8c0,0-.2,0-.3,0,0,0,0,.2,0,.3l3.3,3.3s0,0,.1,0,.1,0,.1,0c0,0,0-.2,0-.3l-3.3-3.3Z"/>
      <path class="cls-6" d="M143.9,95.8c-.1,0-.3,0-.3-.1l-3.3-3.3c0,0-.1-.2-.1-.3s0-.3.1-.3c.2-.2.5-.2.7,0l3.3,3.3c.2.2.2.5,0,.7,0,0-.2.1-.3.1Z"/>
    </g>
    <g>
      <path class="cls-6" d="M131.5,96.8h-1.1s0,0,0,0h-.2s0,0,0,0h0s0,0-.1,0c0,0,0,0,0,0,0,0,0,0,0,.1,0,0,0,.1,0,.1,0,0,0,0,0,0,0,0,0,0,.1,0h.3s0,0,0,0h1.1c.1,0,.2,0,.2-.2,0-.1,0-.2-.2-.2Z"/>
      <path class="cls-6" d="M131.5,97.5h-1.4c-.1,0-.2,0-.3-.1h0s0,0,0,0c0,0-.1-.2-.1-.4,0-.1,0-.2.1-.3h0c0-.1.2-.2.3-.2h0s1.3,0,1.3,0c.3,0,.5.2.5.5,0,.3-.2.5-.5.5Z"/>
    </g>
  </g>
  <g>
    <path class="cls-6" d="M205.1,82.5v-5c-.1-.2-.3-.4-.5-.4l-14.2.3c-.2,0-.4.2-.4.4l.4,14.6c0,.2.2.4.4.4h5.4c0-.1,0,.5,0,.5-.6.5-1,1.3-1,2.1,0,1.5,1.3,2.7,2.8,2.6,1.5,0,2.7-1.3,2.6-2.8,0-.8-.4-1.6-1.1-2.1v-.8s5.5-.2,5.5-.2c.2,0,.4-.2.4-.4v-5.9c-.1,0,.5,0,.5,0,.5.6,1.3.9,2,.9,1.5,0,2.7-1.3,2.7-2.8,0-1.5-1.3-2.7-2.8-2.6-.8,0-1.5.4-2,1.1h-.6ZM209.7,84.1c0,1-.8,1.9-1.8,1.9-.6,0-1.1-.2-1.5-.7,0,0-.2-.2-.3-.2h-1.3c-.2,0-.4.2-.4.5v5.9c.1,0-5.4.2-5.4.2-.2,0-.4.2-.4.4v1.3h0c0,.2,0,.4.2.5.6.3.9.9.9,1.5,0,1-.8,1.9-1.8,1.9-1,0-1.9-.8-1.9-1.8,0-.6.3-1.2.9-1.6.2-.1.2-.3.1-.5,0,0,0,0,0,0v-1.1c0-.2-.2-.4-.5-.4h-5.4c0,.1-.3-13.6-.3-13.6l13.3-.3v5c.1.2.3.4.5.4h1.2c.1,0,.3,0,.3-.2.4-.5.9-.8,1.5-.9,1,0,1.9.8,1.9,1.8Z"/>
    <path class="cls-6" d="M202.2,79.9l-9.2.2c-.2,0-.4.2-.4.4l.2,9.4c0,.2.2.4.4.4l9.2-.2c.2,0,.4-.2.4-.4l-.2-9.4c0-.2-.2-.4-.4-.4ZM193.6,89.5l-.2-8.6,8.4-.2.2,8.6-8.4.2Z"/>
    <path class="cls-6" d="M213.9,88.9c0,.8.4,1.6,1.1,2.1v.8s-5.5.2-5.5.2c-.2,0-.4.2-.4.4v5.9c.1,0-.5,0-.5,0-.5-.6-1.3-.9-2-.9-1.5,0-2.7,1.3-2.6,2.8,0,1.5,1.3,2.7,2.8,2.6.8,0,1.5-.4,2-1.1h.6s.1,5,.1,5c0,.2.2.4.4.4l14.2-.3c.2,0,.4-.2.4-.4l-.4-14.6c0-.2-.2-.4-.4-.4h-5.4c0,.1,0-.5,0-.5.6-.5,1-1.3,1-2.1,0-1.5-1.3-2.7-2.8-2.6-1.5,0-2.7,1.3-2.6,2.8ZM218.5,88.8c0,.4-.4,1-.7,1.5,0,0-.1.1-.2.2,0,0-.1.2-.1.3v.2s0,1.1,0,1.1c0,.2.2.4.4.4h5.3c0-.1.3,13.6.3,13.6l-13.3.3v-5c-.1-.2-.3-.4-.5-.4h-1.2c-.1,0-.3.1-.3.2-.4.5-.9.8-1.5.9-1,0-1.9-.8-1.9-1.8,0-1,.8-1.9,1.8-1.9.6,0,1.1.2,1.5.7,0,.1.2.2.3.2h1.3c.2,0,.4-.2.4-.5v-5.9c-.1,0,5.4-.2,5.4-.2.2,0,.4-.2.4-.4v-1.3c0-.2,0-.4-.2-.5-.6-.4-.9-.9-.9-1.5,0-1,.8-1.9,1.8-1.9,1,0,1.9.8,1.9,1.8Z"/>
    <path class="cls-6" d="M211.7,94.8l.2,9.4c0,.2.2.4.4.4l9.2-.2c.2,0,.4-.2.4-.4l-.2-9.4c0-.2-.2-.4-.4-.4l-9.2.2c-.2,0-.4.2-.4.4ZM220.9,95l.2,8.6-8.4.2-.2-8.6,8.3-.2Z"/>
  </g>
  <g>
    <path class="cls-11" d="M148.1,279.4v1.7h-3.5v-1.7c0-.5.2-.9.5-1.2s.8-.5,1.2-.5h0c1,0,1.7.8,1.7,1.7Z"/>
    <path class="cls-11" d="M148,301.3c0,0,0,.2,0,.3,0,0-.1.1-.2.2l-3.3.9c-.2,0-.4,0-.4-.2v-.4c-.1,0-.1,0-.2-.1l-2.3-7.9s0,0,0-.1c0,0,0,0,0,0v-.2c-.1-.2,0-.4.2-.4l2.5-.7s0,0,.1,0l.7-.2s0,0,0,0c0,0,.1,0,.2,0,0,0,.1.1.2.2l2.5,8.8ZM143.9,295.8c.6,0,1.2-.5,1.2-1.2,0-.6-.5-1.2-1.2-1.2s-1.2.5-1.2,1.2.5,1.2,1.2,1.2Z"/>
    <circle class="cls-11" cx="143.9" cy="294.7" r=".4"/>
    <path class="cls-11" d="M141,294.5l2.1,7.3c-.6.4-1.2.6-1.8.7-.2,0-.4,0-.6.1,0-.4-.2-.8-.5-1l-5-5c-.5-.5-1.3-.8-2.1-.5-.4.1-.7.3-1,.6l-1.6,1.7c-.2.2-.5.3-.8.3s-.6-.1-.8-.4c-.4-.4-.5-.9-.2-1.4.5-.9,1.3-2.1,2.4-2.8.9-.6,1.9-.8,3-.6h0s2.7.4,4.6,1.8c.1,0,.2,0,.4,0l2-.9Z"/>
    <rect class="cls-11" x="126.4" y="280.1" width="14.6" height="1.5"/>
    <path class="cls-11" d="M140,302.8h0c0,.1,0,.2,0,.2h0c0,.2-.1.4-.3.5-.4.4-1.1.4-1.5,0,0,0,0,0,0,0l-2.7-2.7c-.1-.1-.4-.1-.5,0s-.1.4,0,.5l2.7,2.7.5.5c.2.2.3.4.3.7s-.1.5-.3.7c-.4.4-1.1.4-1.5,0l-.6-.6-2.6-2.6c-.1-.1-.4-.1-.5,0s-.1.4,0,.5l2.6,2.6s0,0,0,0c.2.2.3.5.3.7s-.1.5-.3.7c-.4.4-1.1.4-1.5,0l-1.3-1.3c-.1-.1-.4-.1-.5,0s-.1.4,0,.5.2.2.2.3c0,.1,0,.3,0,.4,0,.3-.1.5-.3.7-.4.4-1.1.4-1.5,0l-.3-.3,1-1c.5-.5.5-1.3,0-1.8-.3-.2-.6-.4-.9-.4,0-.3-.1-.7-.4-.9-.3-.3-.6-.4-.9-.4,0-.3-.1-.7-.4-.9-.3-.2-.6-.4-.9-.4,0-.3-.1-.7-.4-.9-.5-.5-1.3-.5-1.8,0l-1,1-.6-.6,2-7c1.2-.3,2.5-.3,3.4-.4-.8.8-1.4,1.7-1.8,2.4-.4.7-.3,1.7.3,2.3.4.4.8.6,1.4.6s1-.2,1.4-.6h0s1.6-1.7,1.6-1.7c.2-.2.4-.3.7-.4.5-.1,1,0,1.4.4l5,5c.2.2.3.4.3.7Z"/>
    <path class="cls-11" d="M131.1,305.5c.2.2.2.6,0,.8l-1.2,1.2h0c-.2.3-.6.3-.8,0s-.2-.5,0-.7l1.4-1.4s0,0,0,0c.2-.1.5-.1.7,0Z"/>
    <path class="cls-11" d="M129.8,304.2c.2.2.2.5,0,.7h0c0,0,0,0,0,0l-1.3,1.3s0,0,0,0c0,0,0,0,0,0l-.5.5c-.1.1-.2.2-.4.2s-.3,0-.4-.2c-.2-.2-.2-.6,0-.8l.4-.4,1.5-1.5c.1-.1.2-.2.4-.2s.3,0,.4.2Z"/>
    <path class="cls-11" d="M128.5,302.9c.2.2.2.6,0,.8,0,0,0,0,0,0l-1.4,1.4s0,0,0,0c-.2.2-.6.2-.8,0s-.2-.6,0-.8l.3-.3s0,0,.1,0,0,0,0,0l1-1s0,0,0,0,0,0,0,0c.2-.2.5-.1.7,0Z"/>
    <path class="cls-11" d="M127.2,301.6c.2.2.2.5,0,.7,0,0,0,0,0,0l-1.2,1.2c-.2.1-.5,0-.7,0-.2-.2-.2-.4-.1-.6,0,0,0,0,0,0h0s0,0,0,0l1.1-1.1c.2-.2.6-.2.8,0Z"/>
    <path class="cls-11" d="M125.9,293.4c0,0,0,.2,0,.3v.5c-.1,0-2.3,7.4-2.3,7.4l-.2.9c0,0,0,.2-.2.2,0,0-.1,0-.2,0s0,0,0,0l-3.3-.9c0,0-.2,0-.2-.2s0-.2,0-.3l2.5-8.8c0-.2.2-.3.3-.3s0,0,0,0l.7.2,2.5.7c.1,0,.2,0,.2.2ZM124.7,294.7c0-.6-.5-1.2-1.2-1.2s-1.2.5-1.2,1.2.5,1.2,1.2,1.2,1.2-.5,1.2-1.2Z"/>
    <circle class="cls-11" cx="123.5" cy="294.7" r=".4"/>
    <path class="cls-11" d="M124.8,277.6h19.8c-.5.5-.7,1.1-.7,1.7v2s0,0,0,0,0,0,0,0v10.3l-2.3.6c-.6.2-.9.7-.8,1.3l-1.9.8c-2-1.4-4.6-1.8-4.8-1.8-1.2-.2-2.3,0-3.4.6-.6,0-2.4,0-4.2.3,0-.2,0-.5-.1-.7-.1-.3-.4-.4-.7-.5l-2.3-.6v-13c0-.7.5-1.2,1.2-1.2ZM141.7,281.8v-1.8c0-.3-.3-.6-.6-.6h-14.9c-.3,0-.6.3-.6.6v1.8c0,.3.3.6.6.6h14.9c.3,0,.6-.3.6-.6ZM141.7,284.9c0-.2-.2-.4-.4-.4h-15.3c-.2,0-.4.2-.4.4s.2.4.4.4h15.3c.2,0,.4-.2.4-.4ZM141.7,287.7c0-.2-.2-.4-.4-.4h-15.3c-.2,0-.4.2-.4.4s.2.4.4.4h15.3c.2,0,.4-.2.4-.4ZM138.8,290.6c0-.2-.2-.4-.4-.4h-12.3c-.2,0-.4.2-.4.4s.2.4.4.4h12.3c.2,0,.4-.2.4-.4Z"/>
  </g>
  <g>
    <g>
      <path class="cls-11" d="M80.4,340.2c.1-.3.2-.6.2-.6,0,0,0,0-.1,0,0,0-.1-.1-.2-.2,0,0-.2-.1-.2-.2,0,0-.1,0-.1,0,0,0-.2.2-.5.4-.2.2-.4.4-.4.4,0,0,0,0,0,0,0,0,0,0-.1,0,0,0-.1,0-.2,0,0,0-.1,0-.2,0-.1,0-.3-.1-.4-.1-.1,0-.2,0-.2,0,0,0,0,0,0,0,0,0,0,0-.1,0-.1,0-.2,0-.4,0,0,0-.1,0-.2,0,0,0-.1,0-.2,0,0,0,0,0-.1,0,0,0,0,0,0,0,0,0,0-.3-.1-.6,0-.1,0-.3-.1-.4,0-.1,0-.2,0-.2,0,0,0,0-.1,0,0,0-.2,0-.3,0-.1,0-.2,0-.3,0,0,0-.1,0-.1,0,0,0,0,0,0,.2,0,.1,0,.3-.1.4,0,.3-.2.6-.2.6,0,0,0,0-.2,0,0,0-.1,0-.2,0,0,0-.1,0-.2,0-.1,0-.3,0-.4,0,0,0,0,0-.1,0,0,0,0,0,0,0,0,0,0,0-.2,0-.1,0-.2,0-.4.1-.1,0-.3.1-.4.1,0,0-.2,0-.2,0,0,0-.2-.2-.4-.4-.1-.1-.2-.2-.3-.3,0,0-.1-.1-.1-.1,0,0,0,0-.1,0,0,0-.2,0-.2.1,0,0-.2.1-.2.2,0,0-.1,0-.1,0,0,0,0,.3.2.6,0,.1,0,.3.1.4,0,.1,0,.2,0,.2,0,0,0,0-.1.1,0,0-.2.2-.3.3-.2.2-.4.4-.4.4,0,0,0,0-.1.1,0,0,0,0-.1.1,0,0,0,.1-.1.2,0,.1-.2.2-.2.3,0,0,0,0,0,.1,0,0,0,0,0,0,0,0-.3,0-.6-.1-.3,0-.6-.1-.6-.1,0,0-.1.2-.2.4,0,0,0,0,0,.1,0,0,0,0,0,.1,0,0,0,.1,0,.1,0,0,.2.2.5.4.2.2.5.4.5.4,0,0,0,0,0,0,0,0,0,0,0,.1,0,0,0,.1,0,.2,0,0,0,.1,0,.2,0,.1,0,.3,0,.4,0,.1,0,.2,0,.2,0,0,0,0,0,.2,0,0,0,.1,0,.2,0,0,0,.1,0,.2,0,0,0,.1,0,.2,0,0,0,.1,0,.2s0,0,0,.1c0,0,0,0,0,0,0,0-.3,0-.6.2-.1,0-.3.1-.4.2-.1,0-.2,0-.2,0,0,0,0,0,0,.1,0,0,0,.2,0,.3,0,.2,0,.4,0,.4,0,0,0,0,.2,0,.1,0,.3,0,.4,0,.3,0,.6,0,.6,0,0,0,0,0,0,.2,0,.1,0,.2.1.4,0,.1,0,.3.1.4,0,0,0,0,0,.1,0,0,0,0,0,0,0,0,0,0,0,.2,0,0,.1.2.2.4,0,.1.1.3.2.3,0,0,0,.2,0,.2,0,0,0,0-.1.1,0,0-.2.2-.2.3-.2.2-.3.5-.3.5,0,0,0,0,0,.1,0,0,.1.1.2.2,0,0,.1.2.2.2,0,0,0,0,0,0,0,0,.3-.1.6-.2.1,0,.3-.1.4-.2.1,0,.2,0,.2,0,0,0,0,0,.1.1,0,0,.2.2.3.3.1,0,.2.2.3.2,0,0,.1.1.1.1,0,0,0,0,0,0,0,0,0,0,.1,0,0,0,.2.1.3.2.1,0,.3.1.3.2,0,0,.2,0,.2,0,0,0,0,.3,0,.6,0,.2,0,.3,0,.4,0,.1,0,.2,0,.2,0,0,.2,0,.4.1,0,0,.2,0,.3,0,0,0,.1,0,.1,0,0,0,0,0,.1-.2,0,0,.2-.2.2-.4.2-.3.3-.5.3-.5,0,0,0,0,0,0,0,0,0,0,.1,0,0,0,.1,0,.2,0,0,0,.1,0,.2,0,0,0,.1,0,.2,0,0,0,.1,0,.2,0,.1,0,.2,0,.2,0,0,0,0,0,.2,0,.1,0,.3,0,.4,0,0,0,.1,0,.2,0,0,0,.1,0,.2,0,0,0,0,0,.1,0,0,0,0,0,0,0,0,0,.1.3.3.5.2.3.3.5.3.5,0,0,0,0,.1,0,0,0,0,0,.1,0,0,0,0,0,.1,0,.2,0,.4-.1.4-.1,0,0,0-.3,0-.6,0-.3,0-.6,0-.6,0,0,0,0,0,0,0,0,0,0,.1,0,0,0,.2,0,.4-.2,0,0,.1,0,.2,0,0,0,.1,0,.2,0,0,0,.2,0,.2,0,0,0,.2-.1.5-.3.1,0,.2-.2.3-.2,0,0,.1-.1.1-.1,0,0,0,0,.2,0,0,0,.2.1.4.2.3.1.5.3.5.3,0,0,0,0,0,0,0,0,.1-.1.2-.2,0,0,.1-.2.2-.2,0,0,0,0,0,0,0,0,0,0,0-.2,0,0-.1-.2-.2-.4-.2-.3-.3-.5-.3-.5,0,0,0,0,.1-.1,0,0,.1-.2.2-.3,0-.1.1-.2.2-.3,0,0,0-.2,0-.2,0,0,0,0,0,0,0,0,0,0,0-.1,0,0,.1-.2.2-.4,0,0,0-.1,0-.2,0,0,0-.1,0-.2,0-.1,0-.2,0-.2,0,0,.3,0,.6,0,.2,0,.3,0,.4,0,.1,0,.2,0,.2,0,0,0,0,0,0-.1,0,0,0-.2,0-.3,0-.1,0-.2,0-.3,0,0,0-.1,0-.1h-.2c-.1-.1-.2-.2-.4-.3-.3-.1-.6-.2-.6-.2,0,0,0,0,0,0,0,0,0,0,0-.1,0,0,0-.1,0-.2,0,0,0-.1,0-.2,0-.1,0-.3,0-.4,0,0,0,0,0-.1,0,0,0,0,0,0,0,0,0,0,0-.2,0-.1,0-.2,0-.4,0,0,0-.1,0-.2,0,0,0-.1,0-.2,0,0,0,0,0-.1,0,0,0,0,0,0,0,0,.2-.2.5-.4.2-.2.5-.4.5-.4,0,0,0,0,0-.1,0,0,0-.2-.1-.3,0,0,0-.2-.1-.3,0,0,0-.1,0-.1,0,0-.3,0-.6,0-.3,0-.6.1-.6.1,0,0,0,0,0,0,0,0,0,0,0-.1,0,0,0,0,0-.2,0,0,0-.1-.1-.2,0,0,0-.1-.1-.2,0,0,0-.1-.1-.1,0,0-.1-.1-.1-.1,0,0,0,0-.1-.1,0,0,0,0-.1-.1,0,0,0-.1-.1-.2,0,0-.1-.1-.1-.1,0,0,0,0-.1-.1,0,0,0,0,0,0,0,0,0,0,0,0,0,0,.1-.3.2-.6ZM77.6,340.6s0,0,.1,0c0,0,0,0,.1,0,0,0,.1,0,.2,0,.3.1.6.3.9.5.3.2.6.5.8.7,0,0,0,.1.1.1,0,0,0,0,0,.1,0,0,0,.1,0,.1,0,0,0,0,0,.1,0,0,0,0,0,.1,0,0,0,.1.1.2.2.2.4.6.5.9.2.4.3.7.3,1,0,0,0,.1,0,.2,0,0,0,.1,0,.1,0,0,0,.1,0,.1,0,0,0,0,0,.1,0,0,0,0,0,.2,0,0,0,0,0,0,0,0,0,0,0,.1,0,.3,0,.7,0,1.1,0,.4-.2.8-.3,1,0,.1-.1.2-.1.3,0,0,0,.1,0,.1,0,0,0,0,0,.1,0,0,0,0,0,.1,0,0,0,.1,0,.2-.1.2-.4.6-.6.8-.3.3-.6.5-.8.7-.1,0-.2.2-.3.2,0,0-.1,0-.1,0,0,0,0,0-.1,0,0,0-.2.1-.3.2-.3.1-.6.3-1,.4-.4.1-.8.2-1,.2,0,0-.1,0-.2,0,0,0-.1,0-.2,0,0,0-.1,0-.1,0,0,0,0,0-.1,0,0,0,0,0-.2,0,0,0-.1,0-.2,0-.3,0-.7-.1-1-.2-.4-.1-.7-.3-1-.4-.3-.1-.4-.3-.4-.3,0,0,0,0-.1,0,0,0,0,0-.1,0,0,0-.1,0-.2-.1-.2-.2-.5-.4-.7-.7-.2-.3-.5-.6-.6-.9,0,0,0-.1,0-.2,0,0,0,0,0-.1,0,0,0-.1,0-.1,0,0,0-.2-.2-.5,0-.3-.2-.6-.2-1,0-.4,0-.8,0-1.1,0,0,0-.1,0-.2,0,0,0-.1,0-.2,0,0,0-.1,0-.1,0,0,0,0,0-.1,0,0,0,0,0-.1,0,0,0-.1,0-.2,0-.3.2-.6.4-1,.2-.3.4-.7.6-.9,0-.1.2-.2.2-.3,0,0,0,0,0,0,0,0,0,0,0,0,0,0,.1-.1.2-.2.2-.2.5-.4.8-.6.3-.2.7-.4,1-.5,0,0,.1,0,.2,0,0,0,.1,0,.1,0,0,0,.1,0,.1,0,0,0,0,0,.1,0,0,0,.2,0,.3,0,.3,0,.7,0,1.1,0,.4,0,.8,0,1.1.1,0,0,0,0,.1,0,0,0,0,0,0,0,0,0,.1,0,.1,0,0,0,.1,0,.1,0Z"/>
      <circle class="cls-11" cx="75.9" cy="345.8" r="4.5" transform="translate(-150.2 73.4) rotate(-27.3)"/>
    </g>
    <g>
      <path class="cls-11" d="M87.6,359.8s0,0,0-.1c0,0,0,0,0-.1,0,0,0,0,0-.1,0,0,0-.1,0-.1,0,0,0,0,0,0,0,0,0,0,0,0,0,0,0-.1,0-.1,0,0-.1,0-.4,0,0,0-.1,0-.2,0,0,0-.1,0-.2,0-.1,0-.3,0-.4,0-.1,0-.2,0-.4,0,0,0,0-.1,0-.2,0-.1,0-.2-.1-.3,0,0,0-.1,0-.1,0,0,0,0,0-.1,0,0,0-.2-.1-.3,0,0,0,0,0,0,0,0,0,0,0,0,0,0,.2-.2.2-.3.2-.2.4-.4.5-.6.1-.2.2-.3.2-.3,0,0,0,0,0-.1,0,0-.1-.1-.2-.2,0,0,0,0,0-.1,0,0,0,0,0-.1,0,0,0,0,0,0,0,0,0,0,0,0,0,0-.1,0-.2,0-.2,0-.5.2-.7.3-.1,0-.2.1-.3.2,0,0-.1-.1-.2-.2,0,0-.2-.2-.2-.2,0,0,0,0,0,0,0,0,0,0,0,0,0,0,0,0,0,0,0,0-.2-.1-.3-.2,0,0-.1,0-.2-.1,0-.1,0-.2,0-.3,0-.1,0-.3,0-.4,0-.1,0-.2,0-.4,0-.2,0-.3,0-.3,0,0,0,0,0,0,0,0,0,0,0,0,0,0-.2,0-.3-.1,0,0-.2,0-.3-.1,0,0,0,0,0,0,0,0,0,0,0,0,0,0-.1.1-.2.3,0,0-.2.2-.2.3,0,0-.2.2-.3.3,0,0-.1.2-.2.3,0,0-.1,0-.2,0,0,0-.1,0-.2,0,0,0,0,0,0,0,0,0,0,0,0,0,0,0-.1,0-.1,0,0,0,0,0-.1,0,0,0-.2,0-.3,0,0,0-.1,0-.2,0,0-.1,0-.2,0-.3,0-.3-.1-.5-.2-.8,0-.2,0-.3,0-.3,0,0,0,0,0,0,0,0,0,0,0,0,0,0-.2,0-.3,0-.1,0-.2,0-.3,0,0,0,0,0,0,0,0,0,0,0,0,0,0,0,0,.1-.1.3,0,.2-.1.5-.2.7,0,.1,0,.2,0,.3,0,0-.1,0-.2,0-.1,0-.2,0-.3,0,0,0-.1,0-.1,0,0,0,0,0-.1,0,0,0,0,0,0,0,0,0,0,0,0,0,0,0-.1,0-.2,0,0,0-.1,0-.2,0,0,0-.1-.2-.2-.3,0-.1-.2-.2-.3-.3,0-.1-.2-.2-.2-.3-.1-.2-.2-.3-.2-.3,0,0,0,0,0,0,0,0,0,0,0,0,0,0-.2,0-.3.1,0,0-.2,0-.3.1,0,0,0,0,0,0,0,0,0,0,0,0,0,0,0,.1,0,.4,0,.1,0,.2,0,.4,0,.1,0,.3,0,.4,0,.1,0,.2,0,.3,0,0-.1,0-.2.1-.1,0-.2.1-.3.2,0,0,0,0,0,0,0,0,0,0,0,0,0,0,0,0,0,0,0,0-.1.1-.2.2,0,0-.1,0-.2.1,0,0-.2-.1-.3-.2-.2-.1-.5-.2-.7-.3,0,0-.2,0-.2-.1,0,0,0,0,0,0,0,0,0,0,0,0,0,0,0,0,0,0,0,0,0,0,0,.1,0,0-.1.2-.2.2,0,0,0,.1,0,.1,0,0,0,.1.2.3.1.2.3.4.5.6,0,0,.1.2.2.3,0,0,0,0,0,0,0,0,0,0,0,0,0,.1-.1.2-.2.3,0,0,0,.1,0,.1,0,0,0,0,0,.1,0,0,0,.2-.1.3,0,0,0,.1,0,.2-.1,0-.2,0-.4,0-.1,0-.3,0-.4,0,0,0-.1,0-.2,0,0,0-.1,0-.2,0-.2,0-.4,0-.4,0,0,0,0,0,0,.1,0,0,0,0,0,0,0,0,0,0,0,0,0,0,0,0,0,.1,0,0,0,.1,0,.1,0,0,0,0,0,.1,0,0,0,.1,0,.1,0,0,.1,0,.3.2.2.1.4.2.7.4.1,0,.2.1.3.1,0,0,0,.1,0,.2,0,.1,0,.2,0,.3,0,0,0,.1,0,.1,0,0,0,0,0,.1,0,0,0,.2,0,.3,0,0,0,.1,0,.2-.1,0-.2,0-.3.1-.3.1-.5.2-.7.3-.2,0-.3.2-.3.2,0,0,0,0,0,.1,0,0,0,0,0,.1,0,0,0,0,0,.1,0,0,0,.1,0,.1,0,0,0,0,0,0,0,0,0,0,0,0,0,0,0,.1,0,.1,0,0,.1,0,.4,0,0,0,.1,0,.2,0,0,0,.1,0,.2,0,.1,0,.3,0,.4,0,.1,0,.2,0,.4,0,0,0,0,.1,0,.2,0,.1,0,.2.1.3,0,0,0,.1,0,.1,0,0,0,0,0,.1,0,0,0,.2.1.3,0,0,0,0,0,0,0,0,0,0,0,0,0,0-.2.2-.2.3-.2.2-.4.4-.5.6-.1.2-.2.3-.2.3,0,0,0,0,0,.1,0,0,.1.1.2.2,0,0,0,0,0,.1,0,0,0,0,0,.1,0,0,0,0,0,0,0,0,0,0,0,0,0,0,.1,0,.2,0,.2,0,.5-.2.7-.3.1,0,.2-.1.3-.2,0,0,.1.1.2.2,0,0,.2.2.2.2,0,0,0,0,0,0,0,0,0,0,0,0,0,0,0,0,0,0,0,0,.2.1.3.2,0,0,.1,0,.2.1,0,.1,0,.2,0,.3,0,.1,0,.3,0,.4,0,.1,0,.2,0,.4,0,.2,0,.3,0,.3,0,0,0,0,0,0,0,0,0,0,0,0,0,0,.2,0,.3.1,0,0,.2,0,.3.1,0,0,0,0,0,0,0,0,0,0,0,0,0,0,.1-.1.2-.3,0,0,.2-.2.2-.3,0,0,.2-.2.3-.3,0,0,.1-.2.2-.3,0,0,.1,0,.2,0,0,0,.1,0,.2,0,0,0,0,0,0,0,0,0,0,0,0,0,0,0,.1,0,.1,0,0,0,0,0,.1,0,0,0,.2,0,.3,0,0,0,.1,0,.2,0,0,.1,0,.2,0,.3,0,.3.1.5.2.8,0,.2,0,.3,0,.3,0,0,0,0,0,0,0,0,0,0,0,0,0,0,.2,0,.3,0,.1,0,.2,0,.3,0,0,0,0,0,0,0,0,0,0,0,0,0,0,0,0-.1.1-.3,0-.2.1-.5.2-.7,0-.1,0-.2,0-.3,0,0,.1,0,.2,0,.1,0,.2,0,.3,0,0,0,.1,0,.1,0,0,0,0,0,.1,0,0,0,0,0,0,0,0,0,0,0,0,0,0,0,.1,0,.2,0,0,0,.1,0,.2,0,0,0,.1.2.2.3,0,.1.2.2.3.3,0,.1.2.2.2.3.1.2.2.3.2.3,0,0,0,0,0,0,0,0,0,0,0,0,0,0,.2,0,.3-.1,0,0,.2,0,.3-.1,0,0,0,0,0,0,0,0,0,0,0,0,0,0,0-.1,0-.4,0-.1,0-.2,0-.4,0-.1,0-.3,0-.4,0-.1,0-.2,0-.3,0,0,.1,0,.2-.1.1,0,.2-.1.3-.2,0,0,0,0,0,0,0,0,0,0,0,0,0,0,0,0,0,0,0,0,.1-.1.2-.2,0,0,.1,0,.2-.1,0,0,.2.1.3.2.2.1.5.2.7.3,0,0,.2,0,.2.1,0,0,0,0,0,0,0,0,0,0,0,0,0,0,0,0,0,0,0,0,0,0,0-.1,0,0,.1-.2.2-.2,0,0,0-.1,0-.1,0,0,0-.1-.2-.3-.1-.2-.3-.4-.5-.6,0,0-.1-.2-.2-.3,0,0,0,0,0,0,0,0,0,0,0,0,0-.1.1-.2.2-.3,0,0,0-.1,0-.1,0,0,0,0,0-.1,0,0,0-.2.1-.3,0,0,0-.1,0-.2.1,0,.2,0,.4,0,.1,0,.3,0,.4,0,0,0,.1,0,.2,0,0,0,.1,0,.2,0,.2,0,.4,0,.4,0,0,0,0,0,0-.1,0,0,0,0,0,0,0,0,0,0,0,0,0,0,0,0,0-.1,0,0,0-.1,0-.1,0,0,0,0,0-.1,0,0,0-.1,0-.1,0,0-.1,0-.3-.2-.2-.1-.4-.2-.7-.4-.1,0-.2-.1-.3-.1,0,0,0-.1,0-.2,0-.1,0-.2,0-.3,0,0,0-.1,0-.1,0,0,0,0,0-.1,0,0,0-.2,0-.3,0,0,0-.1,0-.2.1,0,.2,0,.3-.1.3-.1.5-.2.7-.3.2,0,.3-.2.3-.2ZM84.2,360.6c.2,2.4-1.6,4.5-4,4.7-2.4.2-4.5-1.6-4.7-4-.2-2.4,1.6-4.5,4-4.7,2.4-.2,4.5,1.6,4.7,4Z"/>
      <circle class="cls-11" cx="79.9" cy="361" r="3.8"/>
    </g>
    <g>
      <path class="cls-11" d="M72.8,357.4c.3,0,.4-.2.4-.2,0,0,0,0,0-.2,0,0,0-.1,0-.2,0,0,0-.1,0-.2,0,0,0-.1,0-.2,0,0,0,0,0,0,0,0,0,0,0,0v-.2s-.2,0-.5-.1c0,0-.1,0-.2,0,0,0-.2,0-.2,0-.2,0-.3,0-.5,0-.1,0-.3,0-.4,0,0,0,0-.2,0-.3,0-.2,0-.3,0-.4,0,0,0-.2,0-.2,0,0,0,0,0-.1,0,0,0-.2-.1-.4,0,0,0,0,0-.1,0,0,0,0,0-.1.1,0,.2-.2.3-.3.3-.2.5-.5.7-.7.2-.2.3-.3.3-.3,0,0,0,0,0-.1,0,0-.1-.2-.2-.3,0,0,0-.1,0-.2,0,0,0-.1,0-.1h0c0-.1,0-.1-.1-.1,0,0-.2,0-.3,0-.3,0-.6.1-.9.3-.1,0-.3,0-.4.1,0,0-.1-.2-.2-.2-.1-.1-.2-.2-.3-.3,0,0,0,0,0,0,0,0,0,0,0,0,0,0,0,0-.1-.1,0,0-.2-.2-.3-.3,0,0-.1-.1-.2-.2,0-.1.1-.3.2-.4,0-.2.1-.3.2-.5,0-.2.1-.3.2-.4,0-.3.1-.4.1-.4,0,0,0,0,0,0,0,0,0,0,0,0,0,0-.2-.1-.3-.2-.1,0-.2-.1-.3-.2,0,0,0,0,0,0,0,0,0,0,0,0,0,0-.1.1-.4.3-.1,0-.2.2-.4.3-.1.1-.3.2-.4.3-.1.1-.2.2-.3.3,0,0-.2,0-.2-.1,0,0-.1,0-.2-.1s0,0,0,0c0,0,0,0,0,0,0,0-.1,0-.1,0,0,0,0,0-.1,0,0,0-.2,0-.4-.1,0,0-.2,0-.3,0,0-.1,0-.3,0-.4,0-.4,0-.7,0-1,0-.3,0-.4,0-.4,0,0,0,0,0,0,0,0,0,0-.1,0,0,0-.2,0-.4,0-.1,0-.3,0-.4,0,0,0,0,0-.1,0,0,0,0,0,0,0,0,0,0,.2-.2.4-.1.2-.3.6-.4.9,0,.1-.1.3-.2.4,0,0-.2,0-.3,0-.2,0-.3,0-.4,0,0,0-.2,0-.2,0,0,0,0,0-.2,0,0,0,0,0,0,0,0,0,0,0,0,0,0,0-.1,0-.2,0,0,0-.2,0-.3,0,0-.1-.1-.3-.2-.4,0-.2-.2-.3-.3-.5,0-.1-.2-.3-.2-.4-.1-.2-.2-.4-.2-.4,0,0,0,0,0,0,0,0,0,0-.1,0,0,0-.2,0-.3,0-.1,0-.3,0-.3.1,0,0,0,0-.1,0,0,0,0,0,0,0,0,0,0,.2,0,.4,0,.1,0,.3,0,.5,0,.2,0,.3,0,.5,0,.2,0,.3,0,.4,0,0-.2,0-.2.1-.2,0-.3.1-.4.2,0,0-.1,0-.1,0,0,0,0,0,0,0,0,0,0,0-.1,0,0,0-.2.1-.4.2,0,0-.1,0-.2.2-.1,0-.2-.2-.4-.3-.3-.2-.6-.4-.8-.6-.1,0-.2-.1-.3-.2,0,0-.1,0-.1,0,0,0,0,0-.1.1,0,0,0,0-.1.1,0,0,0,0-.1.1,0,0-.2.2-.3.2,0,0-.1.1-.1.1,0,0,0,.2.2.4.1.2.3.6.5.9,0,.1.2.3.2.4,0,0,0,0,0,.1,0,0,0,0,0,.1-.1.1-.2.2-.3.3,0,0,0,.1,0,.1,0,0,0,0,0,.1,0,0-.1.2-.2.3,0,0,0,.1-.1.2-.1,0-.3,0-.4,0-.2,0-.3,0-.5,0,0,0-.2,0-.2,0,0,0-.1,0-.2,0-.3,0-.4,0-.4,0,0,0,0,0,0,.1,0,0,0,0,0,0,0,0,0,0,0,0,0,0,0,.1,0,.2,0,0,0,.1,0,.2,0,0,0,.1,0,.2,0,0,0,.2,0,.2,0,0,.1.1.3.3.2.2.5.4.8.6.1,0,.2.2.4.2,0,0,0,.2,0,.3,0,.2,0,.3,0,.4,0,0,0,.2,0,.2,0,0,0,0,0,.2,0,0,0,.2,0,.4,0,0,0,.2,0,.3-.1,0-.3,0-.4.1-.3,0-.7.2-.9.3-.3,0-.4.2-.4.2,0,0,0,0,0,.2,0,0,0,.1,0,.2,0,0,0,.1,0,.2,0,0,0,.1,0,.2,0,0,0,0,0,0,0,0,0,0,0,0,0,0,0,.2,0,.2,0,0,.2,0,.4.1,0,0,.1,0,.2,0,0,0,.2,0,.2,0,.2,0,.3,0,.5,0,.1,0,.3,0,.4,0,0,0,0,.2,0,.3,0,.2,0,.3,0,.4,0,0,0,.2,0,.2,0,0,0,0,0,.1,0,0,0,.2.1.4,0,0,0,0,0,.1,0,0,0,0,0,.1-.1,0-.2.2-.3.3-.3.2-.5.5-.7.7-.2.2-.3.3-.3.3,0,0,0,0,0,.1,0,0,.1.2.2.3,0,0,0,.1,0,.2,0,0,0,.1,0,.1h0c0,.1,0,.1.1.1,0,0,.2,0,.3,0,.3,0,.6-.1.9-.3.1,0,.3,0,.4-.1,0,0,.1.2.2.2.1.1.2.2.3.3,0,0,0,0,0,0,0,0,0,0,0,0,0,0,0,0,.1.1,0,0,.2.2.3.3,0,0,.1.1.2.2,0,.1-.1.3-.2.4,0,.2-.1.3-.2.5,0,.2-.1.3-.2.4,0,.3-.1.4-.1.4,0,0,0,0,0,0,0,0,0,0,0,0,0,0,.2.1.3.2.1,0,.2.1.3.2,0,0,0,0,0,0,0,0,0,0,0,0,0,0,.1-.1.4-.3.1,0,.2-.2.4-.3.1-.1.3-.2.4-.3.1-.1.2-.2.3-.3,0,0,.2,0,.2.1,0,0,.1,0,.2.1,0,0,0,0,0,0,0,0,0,0,0,0,0,0,.1,0,.1,0,0,0,0,0,.1,0,0,0,.2,0,.4.1,0,0,.2,0,.3,0,0,.1,0,.3,0,.4,0,.4,0,.7,0,1,0,.3,0,.4,0,.4,0,0,0,0,0,0,0,0,0,0,.1,0,0,0,.2,0,.4,0,.1,0,.3,0,.4,0,0,0,0,0,.1,0,0,0,0,0,0,0,0,0,0-.2.2-.4.1-.2.3-.6.4-.9,0-.1.1-.3.2-.4,0,0,.2,0,.3,0,.2,0,.3,0,.4,0,0,0,.2,0,.2,0,0,0,0,0,.2,0,0,0,0,0,0,0,0,0,0,0,0,0,0,0,.1,0,.2,0,0,0,.2,0,.3,0,0,.1.1.3.2.4,0,.2.2.3.3.5,0,.1.2.3.2.4.1.2.2.4.2.4,0,0,0,0,0,0,0,0,0,0,.1,0,0,0,.2,0,.3,0,.1,0,.3,0,.3-.1,0,0,0,0,.1,0,0,0,0,0,0,0,0,0,0-.2,0-.4,0-.1,0-.3,0-.5,0-.2,0-.3,0-.5,0-.2,0-.3,0-.4,0,0,.2,0,.2-.1.2,0,.3-.1.4-.2,0,0,.1,0,.1,0,0,0,0,0,0,0,0,0,0,0,.1,0,0,0,.2-.1.4-.2,0,0,.1,0,.2-.2.1,0,.2.2.4.3.3.2.6.4.8.6.1,0,.2.1.3.2,0,0,.1,0,.1,0,0,0,0,0,.1-.1,0,0,0,0,.1-.1,0,0,0,0,.1-.1,0,0,.2-.2.3-.2,0,0,.1-.1.1-.1,0,0,0-.2-.2-.4-.1-.2-.3-.6-.5-.9,0-.1-.2-.3-.2-.4,0,0,0,0,0-.1,0,0,0,0,0-.1.1-.1.2-.2.3-.3,0,0,0-.1,0-.1,0,0,0,0,0-.1,0,0,.1-.2.2-.3,0,0,0-.1.1-.2.1,0,.3,0,.4,0,.2,0,.3,0,.5,0,0,0,.2,0,.2,0,0,0,.1,0,.2,0,.3,0,.4,0,.4,0,0,0,0,0,0-.1,0,0,0,0,0,0,0,0,0,0,0,0,0,0,0-.1,0-.2,0,0,0-.1,0-.2,0,0,0-.1,0-.2,0,0,0-.2,0-.2,0,0-.1-.1-.3-.3-.2-.2-.5-.4-.8-.6-.1,0-.2-.2-.4-.2,0,0,0-.2,0-.3,0-.2,0-.3,0-.4,0,0,0-.2,0-.2,0,0,0,0,0-.2,0,0,0-.2,0-.4,0,0,0-.2,0-.3.1,0,.3,0,.4-.1.3,0,.7-.2.9-.3ZM69.7,355.4s0,0,0,.1c0,0,0,.2,0,.3,0,0,0,.1,0,.2,0,0,0,.2,0,.2,0,.2,0,.4,0,.5,0,0,0,0,0,.1,0,0,0,0,0,.1,0,0,0,0,0,.1,0,0,0,0,0,0,0,0,0,0,0,0,0,0,0,.2,0,.2,0,0,0,.2,0,.2,0,.1,0,.3,0,.3,0,0,0,.1,0,.1,0,0,0,0,0,.1,0,0,0,.2,0,.3,0,0,0,.1,0,.2,0,0,0,.2,0,.2,0,0,0,0,0,0,0,0,0,0,0,0,0,0,0,0,0,.1,0,0,0,0,0,.1,0,0,0,0,0,.1,0,.2-.2.3-.2.5,0,0,0,.1-.1.2,0,0,0,.1-.1.2,0,.1-.1.2-.2.3,0,0,0,.1,0,.1,0,0,0,0,0,.1,0,0-.1.2-.2.3,0,0,0,0,0,0,0,0,0,0,0,0,0,0-.1.1-.2.2,0,0-.1.1-.2.2h0s0,0,0,0c0,0,0,0-.1,0-.3.2-.6.5-.8.6-.1,0-.2.1-.3.2,0,0,0,0,0,0,0,0,0,0,0,0,0,0,0,0-.1,0,0,0-.2,0-.3.1-.3.1-.6.3-.9.4-.4.1-.7.2-1,.2,0,0-.1,0-.2,0,0,0,0,0,0,0,0,0,0,0,0,0,0,0-.1,0-.1,0,0,0,0,0-.1,0,0,0-.2,0-.3,0-.3,0-.6,0-1,0-.4,0-.7-.2-1-.2-.1,0-.2,0-.3-.1,0,0-.1,0-.1,0,0,0,0,0-.1,0,0,0,0,0,0,0,0,0,0,0,0,0,0,0-.1,0-.2,0-.2-.1-.6-.3-.9-.5-.3-.2-.6-.5-.8-.7,0,0-.2-.2-.2-.2,0,0,0,0,0,0,0,0,0,0,0,0,0,0,0,0,0,0,0,0-.1-.2-.2-.3-.2-.2-.4-.5-.6-.9,0,0,0,0,0-.1h0c0,0,0-.1,0-.1,0,0,0-.2-.1-.2,0,0,0-.2,0-.2,0,0,0,0,0-.1,0,0,0,0,0-.1,0-.1,0-.2-.1-.3,0,0,0-.1,0-.1,0,0,0,0,0-.1,0,0,0-.2,0-.3,0,0,0-.1,0-.2,0,0,0-.2,0-.2,0-.2,0-.4,0-.5,0,0,0,0,0-.1,0,0,0,0,0-.1,0,0,0,0,0-.1,0,0,0,0,0,0,0,0,0,0,0,0,0,0,0-.2,0-.2,0,0,0-.2,0-.2,0-.1,0-.3,0-.3,0,0,0-.1,0-.1,0,0,0,0,0-.1,0,0,0-.2,0-.3,0,0,0-.1,0-.2,0,0,0-.2,0-.2,0,0,0,0,0,0,0,0,0,0,0,0,0,0,0,0,0-.1,0,0,0,0,0-.1,0,0,0,0,0-.1,0-.2.2-.3.2-.5,0,0,0-.1.1-.2,0,0,0-.1.1-.2,0-.1.1-.2.2-.3,0,0,0-.1,0-.1,0,0,0,0,0-.1,0,0,.1-.2.2-.3,0,0,0,0,0,0,0,0,0,0,0,0,0,0,.1-.1.2-.2,0,0,.1-.1.2-.2h0s0,0,0,0c0,0,0,0,.1,0,.3-.2.6-.5.8-.6.1,0,.2-.1.3-.2,0,0,0,0,0,0,0,0,0,0,0,0,0,0,0,0,.1,0,0,0,.2,0,.3-.1.3-.1.6-.3.9-.4.4-.1.7-.2,1-.2,0,0,.1,0,.2,0,0,0,0,0,0,0,0,0,0,0,0,0,0,0,.1,0,.1,0,0,0,0,0,.1,0,0,0,.2,0,.3,0,.3,0,.6,0,1,0,.4,0,.7.2,1,.2.1,0,.2,0,.3.1,0,0,.1,0,.1,0,0,0,0,0,.1,0,0,0,0,0,0,0,0,0,0,0,0,0,0,0,.1,0,.2,0,.2.1.6.3.9.5.3.2.6.5.8.7,0,0,.2.2.2.2,0,0,0,0,0,0,0,0,0,0,0,0,0,0,0,0,0,0,0,0,.1.2.2.3.2.2.4.5.6.9,0,0,0,0,0,.1h0c0,0,0,.1,0,.1,0,0,0,.2.1.2,0,0,0,.2,0,.2,0,0,0,0,0,.1,0,0,0,0,0,.1,0,.1,0,.2.1.3,0,0,0,.1,0,.1Z"/>
      <circle class="cls-11" cx="63.3" cy="357.2" r="5.8" transform="translate(-242.7 162.3) rotate(-47.5)"/>
    </g>
  </g>
  <g class="cls-14">
    <path class="cls-11" d="M67.9,488.1h0c0-.9.1-1.6.4-2.2.3-.6.7-1.2,1.1-1.7.5-.5,1.1-.9,1.7-1.1.7-.3,1.4-.4,2.1-.4s1.4.1,2.1.4c.6.3,1.2.7,1.7,1.1.5.5.9,1.1,1.1,1.7.3.7.4,1.4.4,2.1h0c0,.2,0,.2,0,.2h-10.6s0,0,0,0ZM71.2,480.9c-.6-.6-.9-1.3-.9-2.1s.3-1.5.9-2.1c.6-.6,1.3-.9,2.1-.9s1.5.3,2.1.9c.6.6.9,1.3.9,2.1s-.3,1.5-.9,2.1c-.6.6-1.3.9-2.1.9s-1.5-.3-2.1-.9ZM79.5,488.1h0c0-1-.2-1.8-.5-2.6-.3-.7-.8-1.4-1.3-2-.6-.6-1.2-1-2-1.3-.1,0-.3-.1-.4-.2.3-.2.5-.4.7-.6.4-.4.6-.8.8-1.2.2-.5.3-1,.3-1.5s-.1-1-.3-1.5c-.2-.5-.5-.9-.8-1.2-.4-.4-.8-.6-1.2-.8-.5-.2-1-.3-1.5-.3s-1,.1-1.5.3c-.5.2-.9.5-1.2.8-.4.4-.6.8-.8,1.2-.2.5-.3,1-.3,1.5s.1,1,.3,1.5c.2.5.5.9.8,1.2.2.2.5.4.7.6-.1,0-.3.1-.4.2-.7.3-1.4.8-2,1.3-.6.6-1,1.2-1.3,2-.3.8-.5,1.6-.5,2.4h0c0,.7.4,1.1.9,1.1h10.6c.5,0,.9-.4.9-.9Z"/>
    <path class="cls-11" d="M62.4,479.8c0-.7.3-1.4.8-1.9.5-.5,1.2-.8,1.9-.8s1.4.3,1.9.8c.5.5.8,1.2.8,1.9s-.3,1.4-.8,1.9c-.5.5-1.2.8-1.9.8s-1.4-.3-1.9-.8-.8-1.2-.8-1.9ZM66.9,488.6c0-.2-.2-.4-.4-.4h-6.2s0,0,0,0h0c0-.7.1-1.4.4-1.9.2-.6.6-1.1,1-1.5.4-.4.9-.8,1.5-1,.6-.2,1.2-.4,1.9-.4,1,0,1.9.3,2.7.8.2.1.5,0,.6-.1s0-.5-.1-.6c-.4-.3-.8-.5-1.3-.6.2-.1.4-.3.6-.5.7-.7,1-1.5,1-2.5s-.4-1.8-1-2.5c-.7-.7-1.5-1-2.5-1s-1.8.4-2.5,1-1,1.5-1,2.5.4,1.8,1,2.5c.2.2.4.3.6.5-.1,0-.2,0-.3.1-.7.3-1.3.7-1.8,1.2-.5.5-.9,1.1-1.2,1.8-.3.7-.4,1.4-.4,2.2h0c0,.6.4,1,.9,1h6.2c.2,0,.4-.2.4-.4Z"/>
    <path class="cls-11" d="M81.6,482.4c-.7,0-1.4-.3-1.9-.8s-.8-1.2-.8-1.9.3-1.4.8-1.9c.5-.5,1.2-.8,1.9-.8s1.4.3,1.9.8c.5.5.8,1.2.8,1.9s-.3,1.4-.8,1.9c-.5.5-1.2.8-1.9.8ZM85.6,484c-.5-.5-1.1-.9-1.8-1.2-.1,0-.2,0-.3-.1.2-.1.4-.3.6-.5.7-.7,1-1.5,1-2.5s-.4-1.8-1-2.5c-.7-.7-1.5-1-2.5-1s-1.8.4-2.5,1-1,1.5-1,2.5.4,1.8,1,2.5c.2.2.4.3.6.5-.4.2-.8.4-1.2.6-.2.1-.3.4-.1.6.1.2.4.3.6.1.8-.5,1.7-.8,2.6-.8s1.3.1,1.9.4c.6.2,1.1.6,1.5,1,.4.4.8,1,1,1.5.2.6.4,1.2.4,1.9h0c0,.1,0,.1,0,.1h-6.1c-.2,0-.4.2-.4.4s.2.4.4.4h6.1c.5,0,.9-.4.9-.9h0c0-.8-.1-1.6-.4-2.3-.3-.7-.7-1.3-1.2-1.8Z"/>
    <path class="cls-11" d="M64.2,466.4l-2.2,2.2-2.2-2.2c-.4-.4-.4-1.1,0-1.5.2-.2.5-.3.8-.3s.6.1.8.3l.4.4c.2.2.5.2.6,0l.4-.4c.2-.2.5-.3.8-.3s.6.1.8.3c.2.2.3.5.3.8s-.1.6-.3.8ZM62,464.3h0c0,0,0,0,0,0-.4-.4-.9-.6-1.4-.6-.5,0-1,.2-1.4.6-.8.8-.8,2,0,2.8l2.6,2.6c0,0,.2.1.3.1s.2,0,.3-.1l2.6-2.6c.4-.4.6-.9.6-1.4s-.2-1-.6-1.4c-.8-.8-2-.8-2.8,0Z"/>
    <path class="cls-11" d="M61.9,471.5c.3,0,.7,0,1,0l2,3.5c0,.1.2.2.4.2s0,0,.1,0c.2,0,.3-.3.3-.5l-.6-4.2c.4-.3.7-.6,1-1,.1-.2.1-.5,0-.6-.2-.1-.5-.1-.6,0-.3.4-.6.7-1,1-.1,0-.2.3-.2.4l.3,2.2-1-1.8c0-.2-.3-.3-.5-.2-.4,0-.7.1-1.1.1-1.2,0-2.3-.5-3.1-1.3-.8-.8-1.3-1.9-1.3-3.1s.5-2.3,1.3-3.1c.8-.8,1.9-1.3,3.1-1.3s1.2.1,1.8.4c.6.3,1,.6,1.4,1.1.2.2.4.2.6,0,.2-.2.2-.4,0-.6-.5-.5-1.1-1-1.7-1.3-.7-.3-1.4-.5-2.2-.5s-1.4.1-2.1.4c-.6.3-1.2.6-1.7,1.1-.5.5-.9,1-1.1,1.7-.3.7-.4,1.3-.4,2.1s.1,1.4.4,2.1c.3.6.6,1.2,1.1,1.7.5.5,1,.9,1.7,1.1.7.3,1.3.4,2.1.4Z"/>
    <path class="cls-11" d="M82.4,465h.2c.2,0,.4-.2.4-.4s-.2-.4-.4-.4h-.2c-.2,0-.4.2-.4.4s.2.4.4.4Z"/>
    <path class="cls-11" d="M90.1,464.1c-.3-.6-.6-1.2-1.1-1.7-.5-.5-1-.9-1.7-1.1-.7-.3-1.3-.4-2.1-.4-1.5,0-3,.7-4,1.8-.2.2-.1.5,0,.6.2.2.5.1.6,0,.8-1,2.1-1.5,3.3-1.5s2.3.5,3.1,1.3,1.3,1.9,1.3,3.1-.5,2.3-1.3,3.1c-.8.8-1.9,1.3-3.1,1.3s-.4,0-.6,0c-.2,0-.4,0-.4.2l-1,1.7.3-1.9c0-.2,0-.4-.2-.5-.6-.3-1.1-.7-1.5-1.3-.1-.2-.4-.2-.6,0-.2.1-.2.4,0,.6.4.5.9,1,1.5,1.4l-.5,3.8c0,.2,0,.4.3.5,0,0,0,0,.1,0,.2,0,.3,0,.4-.2l1.9-3.4c.1,0,.3,0,.4,0,.7,0,1.4-.1,2.1-.4.6-.3,1.2-.6,1.7-1.1.5-.5.9-1,1.1-1.7.3-.7.4-1.3.4-2.1s-.1-1.4-.4-2.1Z"/>
    <path class="cls-11" d="M88,465c.2,0,.4-.2.4-.4s-.2-.4-.4-.4h-4c-.2,0-.4.2-.4.4s.2.4.4.4h4Z"/>
    <path class="cls-11" d="M82.4,466.6h5.6c.2,0,.4-.2.4-.4s-.2-.4-.4-.4h-5.6c-.2,0-.4.2-.4.4s.2.4.4.4Z"/>
    <path class="cls-11" d="M88,467.4h-.1c-.2,0-.4.2-.4.4s.2.4.4.4h.1c.2,0,.4-.2.4-.4s-.2-.4-.4-.4Z"/>
    <path class="cls-11" d="M82.4,468.3h4c.2,0,.4-.2.4-.4s-.2-.4-.4-.4h-4c-.2,0-.4.2-.4.4s.2.4.4.4Z"/>
    <path class="cls-11" d="M72.5,464.9c.7-.2,1.2-.7,1.4-1.4.1-.5.2-1,.2-1.5v-.3c0,0,0,0,0,0,.3,0,.5.2.5.5s0,0,0,0c0,.6,0,1.2,0,1.8h0c0,.2,0,.4.1.5s.2.1.3.1h2.9c0,0,.2,0,.2.2s0,.2-.2.2h-.2c-.2,0-.4.2-.4.4s.2.4.4.4.2,0,.2.2,0,.2-.2.2h-.1c-.2,0-.4.2-.4.4s.2.4.4.4.2,0,.2.2,0,.2-.2.2h-.2c-.2,0-.4.2-.4.4s.2.4.4.4.2,0,.2.2,0,.2-.2.2h-5v-3.7h0ZM72.1,469.5h5.4c.6,0,1.1-.5,1.1-1.1s0-.3-.1-.5c.2-.2.3-.5.3-.7s0-.4-.1-.5c.2-.2.3-.4.3-.7s0-.3-.1-.5c.2-.2.3-.5.3-.8,0-.6-.5-1.1-1.1-1.1h-2.4c0-.5,0-1.1,0-1.6,0-.8-.6-1.4-1.4-1.4s-1,.4-1,1v.3c0,.4,0,.8-.2,1.3-.1.4-.5.8-1,.8s-.4.2-.4.4v4.5c0,.2.2.4.4.4Z"/>
    <path class="cls-11" d="M69.5,465h.8v3.6h-.8v-3.6h0ZM69,469.5h1.7c.2,0,.4-.2.4-.4v-4.5c0-.2-.2-.4-.4-.4h-1.7c-.2,0-.4.2-.4.4v4.5c0,.2.2.4.4.4Z"/>
    <path class="cls-11" d="M67.2,463.2c.3-.8.8-1.6,1.5-2.2s1.4-1.1,2.2-1.5c.9-.4,1.8-.5,2.7-.5s1.8.2,2.7.5c.8.3,1.6.8,2.2,1.5.6.6,1.1,1.4,1.5,2.2.4.9.5,1.8.5,2.7s-.2,1.8-.5,2.7c-.3.8-.8,1.6-1.5,2.2-.6.6-1.4,1.1-2.2,1.5-.9.4-1.8.5-2.7.5s-1.4-.1-2.1-.3c-.1,0-.3,0-.4,0l-2.5,1.8.3-3.1c0-.1,0-.3-.1-.4-.7-.6-1.2-1.4-1.6-2.2-.4-.9-.6-1.8-.6-2.8,0-.9.2-1.8.5-2.7ZM66.4,469c.4.9.9,1.7,1.6,2.4l-.4,3.9c0,.2,0,.3.2.4,0,0,.1,0,.2,0s.2,0,.3,0l3.1-2.3c.7.2,1.4.3,2.1.3,1.1,0,2.1-.2,3-.6.9-.4,1.8-1,2.5-1.7.7-.7,1.3-1.6,1.7-2.5.4-1,.6-2,.6-3s-.2-2.1-.6-3c-.4-.9-1-1.8-1.7-2.5-.7-.7-1.6-1.3-2.5-1.7-1-.4-2-.6-3-.6s-2.1.2-3,.6c-.9.4-1.8,1-2.5,1.7-.7.7-1.3,1.6-1.7,2.5-.4,1-.6,2-.6,3s.2,2.1.7,3.1Z"/>
  </g>
  <g class="cls-15">
    <path class="cls-10" d="M130.2,496.9h.7c0,0,.2.8.2.8l-.6.4c0,0-.2.2-.2.3l-.2,1c0,.1,0,.2,0,.3l.4.6-.4.6-.7-.2c-.1,0-.2,0-.3,0l-.8.6c0,0-.2.2-.2.3v.7c0,0-.8.2-.8.2l-.4-.6c0,0-.2-.2-.3-.2l-1-.2s0,0,0,0c0,0-.2,0-.2,0l-.6.4-.6-.4.2-.7c0-.1,0-.2,0-.3l-.6-.8c0,0-.2-.2-.3-.2h-.7c0,0-.2-.8-.2-.8l.6-.4c0,0,.2-.2.2-.3l.2-1c0-.1,0-.2,0-.3l-.4-.6.4-.6.7.2c.1,0,.2,0,.3,0l.8-.6c0,0,.2-.2.2-.3v-.7c0,0,.8-.2.8-.2l.4.6c0,0,.2.2.3.2l1,.2c.1,0,.2,0,.3,0l.6-.4.6.4-.2.7c0,.1,0,.2,0,.3l.6.8c0,0,.2.2.3.2ZM130.1,494.3l-1.1-.7c-.1,0-.3,0-.5,0l-.6.5h-.6c0-.1-.4-.8-.4-.8,0-.1-.3-.2-.4-.2l-1.3.3c-.2,0-.3.2-.3.3v.8c-.1,0-.6.4-.6.4l-.8-.2c-.2,0-.3,0-.4.2l-.7,1.1c0,.1,0,.3,0,.5l.5.6v.6c-.1,0-.8.4-.8.4-.1,0-.2.3-.2.4l.3,1.3c0,.2.2.3.3.3h.8c0,.1.4.6.4.6l-.2.8c0,.2,0,.3.2.4l1.1.7c.1,0,.3,0,.5,0l.6-.5h.6c0,.1.4.8.4.8,0,.1.2.2.3.2s0,0,0,0l1.3-.3c.2,0,.3-.2.3-.3v-.8c.1,0,.6-.4.6-.4l.8.2c.2,0,.3,0,.4-.2l.7-1.1c0-.1,0-.3,0-.5l-.5-.6v-.6c.1,0,.8-.4.8-.4.1,0,.2-.3.2-.4l-.3-1.3c0-.2-.2-.3-.3-.3h-.8c0-.1-.4-.6-.4-.6l.2-.8c0-.2,0-.3-.2-.4Z"/>
    <path class="cls-10" d="M128.5,498.5c0,.4-.3.8-.7,1.1-.4.3-.8.4-1.3.3-.4,0-.8-.3-1.1-.7-.3-.4-.4-.8-.3-1.3.1-.8.9-1.4,1.6-1.4s.2,0,.3,0c.4,0,.8.3,1.1.7.3.4.4.8.3,1.3ZM127.3,495.8c-.6-.1-1.3,0-1.8.4-.5.4-.9.9-1,1.6-.1.6,0,1.3.4,1.8.4.5.9.9,1.6,1,.1,0,.3,0,.4,0,.5,0,1-.2,1.4-.4.5-.4.9-.9,1-1.6.1-.6,0-1.3-.4-1.8-.4-.5-.9-.9-1.6-1Z"/>
    <path class="cls-10" d="M136.3,502.5c0,0-.2.2-.2.3v.6c-.1.1-.1.2,0,.3l.2.3v.2c-.1,0-.5,0-.5,0-.1,0-.2,0-.3,0l-.5.4c0,0-.2.2-.2.3v.3s-.3,0-.3,0l-.2-.3c0,0-.2-.2-.3-.2h-.6c0-.1,0-.1,0-.1,0,0-.2,0-.2,0l-.3.2h-.2c0-.1,0-.5,0-.5,0-.1,0-.2,0-.3l-.4-.5c0,0-.2-.2-.3-.2h-.3s0-.3,0-.3l.3-.2c0,0,.2-.2.2-.3v-.6c.1-.1.1-.2,0-.3l-.2-.3v-.2c.1,0,.5,0,.5,0,.1,0,.2,0,.3,0l.5-.4c0,0,.2-.2.2-.3v-.3s.3,0,.3,0l.2.3c0,0,.2.2.3.2h.6c.1.1.2.1.3,0l.3-.2h.2c0,.1,0,.5,0,.5,0,.1,0,.2,0,.3l.4.5c0,0,.2.2.3.2h.3s0,.3,0,.3l-.3.2ZM137.2,502.8c.1,0,.2-.3.2-.4l-.2-.8c0-.2-.2-.3-.3-.3h-.4c0,0-.2-.3-.2-.3v-.4c.1-.2,0-.3,0-.4l-.7-.4c-.1,0-.3,0-.5,0l-.4.3h-.3c0,0-.2-.4-.2-.4,0-.1-.3-.2-.4-.2l-.8.2c-.2,0-.3.2-.3.3v.4c0,0-.3.2-.3.2h-.4c-.2-.1-.3,0-.4,0l-.4.7c0,.1,0,.3,0,.5l.3.4v.3c0,0-.4.2-.4.2-.1,0-.2.3-.2.4l.2.8c0,.2.2.3.3.3h.4c0,0,.2.3.2.3v.4c-.1.2,0,.3,0,.4l.7.4c.1,0,.3,0,.5,0l.4-.3h.3c0,0,.2.4.2.4,0,.1.2.2.3.2s0,0,0,0l.8-.2c.2,0,.3-.2.3-.3v-.4c0,0,.3-.2.3-.2h.4c.2.1.3,0,.4,0l.4-.7c0-.1,0-.3,0-.5l-.3-.4v-.3c0,0,.4-.2.4-.2Z"/>
    <path class="cls-10" d="M134.9,502.8c0,.4-.5.7-.9.6-.4,0-.7-.5-.6-.9,0-.2.1-.4.3-.5.1,0,.3-.1.4-.1s0,0,.1,0c.2,0,.4.1.5.3.1.2.2.4.1.6ZM134.4,501.2c-.4,0-.8,0-1.2.3-.3.2-.6.6-.6,1-.2.8.4,1.6,1.3,1.8,0,0,.2,0,.3,0,.7,0,1.4-.5,1.5-1.3,0-.4,0-.8-.3-1.2-.2-.3-.6-.6-1-.6Z"/>
    <path class="cls-10" d="M134.8,492c.1-.8.6-1.5,1.3-2,.5-.4,1.1-.6,1.7-.6s.4,0,.5,0c.8.1,1.5.6,2,1.3.5.7.6,1.5.5,2.3-.1.8-.6,1.5-1.3,2-.7.5-1.5.6-2.3.5-.8-.1-1.5-.6-2-1.3s-.6-1.5-.5-2.3ZM134.7,494.7c.3.4.6.8,1.1,1,.4.3.9.5,1.4.6.2,0,.5,0,.7,0s.6,0,.8,0c.5-.1.9-.3,1.4-.6.4-.3.8-.6,1-1.1.3-.4.5-.9.6-1.4,0-.5,0-1,0-1.5-.1-.5-.3-.9-.6-1.4-.3-.4-.6-.8-1.1-1-.4-.3-.9-.5-1.4-.6-.5,0-1,0-1.5,0-.5.1-.9.3-1.4.6-.4.3-.8.6-1,1.1-.3.4-.5.9-.6,1.4,0,.5,0,1,0,1.5.1.5.3.9.6,1.4Z"/>
    <path class="cls-10" d="M132.3,491.4l-.8-.6.2-.7h1c.1,0,.3,0,.3-.1l.7-1c0-.1,0-.3,0-.4l-.4-.9.6-.5.8.6c.1,0,.3,0,.4,0l1.1-.5c.1,0,.2-.2.2-.3l.2-1h.8c0,0,.4.9.4.9,0,.1.2.2.3.2l1.2.2c.1,0,.3,0,.4-.1l.7-.8.7.3-.2,1c0,.1,0,.3.1.4l.9.8c.1,0,.2.1.4,0l1-.3.4.7-.7.7c0,0-.1.2,0,.4l.3,1.2c0,.1.1.2.3.3l1,.3v.8s-1,.2-1,.2c-.1,0-.2.1-.3.3l-.4,1.2c0,.1,0,.3,0,.4l.6.8-.4.6-.9-.3c-.1,0-.3,0-.4,0l-1,.8c-.1,0-.2.2-.1.4v1c.1,0-.6.3-.6.3l-.6-.8c0-.1-.2-.2-.4-.2h-1.2c-.1.1-.3.2-.3.4l-.4.9h-.8c0-.1,0-1.1,0-1.1,0-.1,0-.3-.2-.3l-1.1-.5c-.1,0-.3,0-.4,0l-.9.5-.6-.5.5-.9c0-.1,0-.3,0-.4l-.6-1.1c0-.1-.2-.2-.3-.2h-1s-.2-.8-.2-.8l.9-.5c.1,0,.2-.2.2-.3v-1.2c0-.1,0-.3-.1-.3ZM130.8,493.2c-.2,0-.2.3-.2.4l.3,1.3c0,.2.2.3.4.3h1.1s.4.7.4.7l-.5,1c0,.2,0,.4,0,.5l1,.9c.1.1.3.1.5,0l.9-.6.7.3v1.1c.1.2.2.3.4.4l1.4.2s0,0,0,0c.2,0,.3,0,.4-.2l.5-1h.8c0,0,.7.8.7.8.1.1.3.2.5.1l1.3-.5h0c.2,0,.3-.2.2-.4v-1.1c-.1,0,.5-.5.5-.5l1,.4c.2,0,.4,0,.5-.1l.8-1.1c.1-.1,0-.3,0-.5l-.7-.8.2-.7,1.1-.2c.2,0,.3-.2.3-.4v-1.4c0-.2,0-.3-.2-.4l-1-.3-.2-.8.8-.8c.1-.1.1-.3,0-.5l-.7-1.2c0-.2-.3-.2-.4-.2l-1,.3-.6-.5.2-1.1c0-.2,0-.4-.2-.4l-1.2-.6c-.2,0-.4,0-.5,0l-.7.8h-.8c0-.1-.4-1.1-.4-1.1,0-.2-.2-.3-.4-.2l-1.4.2c-.2,0-.3.2-.3.3l-.2,1.1-.7.3-.9-.6c-.1-.1-.3,0-.5,0l-1.1.9c-.1.1-.2.3-.1.5l.4,1-.4.6h-1.1c-.2,0-.3,0-.4.2l-.4,1.3c0,.2,0,.4.2.5l.9.6v.8s-1,.5-1,.5Z"/>
    <path class="cls-10" d="M148.5,494.9c0-2-.4-3.9-1.2-5.7-.4-.9-.8-1.7-1.4-2.5-.5-.8-1.1-1.5-1.8-2.2-.7-.7-1.4-1.3-2.2-1.8-.8-.5-1.6-1-2.5-1.4-1.8-.8-3.7-1.2-5.7-1.2s-3.6.3-5.3,1c-1.6.6-3.1,1.5-4.5,2.7-.2.1-.2.4,0,.6.1.2.4.2.6,0,1.2-1.1,2.7-2,4.2-2.6,1.6-.6,3.3-.9,5-.9s3.7.4,5.4,1.1c.8.3,1.6.8,2.4,1.3.7.5,1.4,1.1,2.1,1.7.6.6,1.2,1.3,1.7,2.1.5.7.9,1.5,1.3,2.4.7,1.7,1.1,3.5,1.1,5.4s-.3,3.1-.8,4.6c-.4,1.2-1,2.3-1.7,3.3v-.8c-.2-.2-.4-.4-.6-.3-.2,0-.4.2-.3.5l.3,1.7c0,.2.2.3.4.3s0,0,0,0l1.7-.3c.2,0,.4-.2.3-.5,0-.2-.2-.4-.5-.3h-.6c.7-1,1.3-2.1,1.7-3.3.5-1.6.8-3.2.8-4.8Z"/>
    <path class="cls-10" d="M143.7,504.6c-.6.7-1.3,1.3-2.1,1.8-.8.5-1.6,1-2.4,1.3-.9.4-1.8.7-2.7.8-.9.2-1.9.3-2.9.3-1.9,0-3.7-.4-5.4-1.1-.8-.3-1.6-.8-2.4-1.3-.7-.5-1.4-1.1-2.1-1.7-.6-.6-1.2-1.3-1.7-2.1-.5-.7-.9-1.5-1.3-2.4-.7-1.7-1.1-3.5-1.1-5.4s.3-3.4.9-5c.5-1.3,1.1-2.4,2-3.5v.6c0,.2.2.4.4.4s.4-.2.4-.4v-1.7c0-.2-.2-.4-.4-.4h-1.7c-.2,0-.4.2-.4.4s.2.4.4.4h.8c-.9,1.2-1.7,2.5-2.2,3.9-.7,1.7-1,3.5-1,5.3s.4,3.9,1.2,5.7c.4.9.8,1.7,1.4,2.5.5.8,1.1,1.5,1.8,2.2.7.7,1.4,1.3,2.2,1.8.8.5,1.6,1,2.5,1.4,1.8.8,3.7,1.2,5.7,1.2s2-.1,3-.3c1-.2,1.9-.5,2.8-.9.9-.4,1.7-.9,2.5-1.4.8-.5,1.5-1.2,2.2-1.9.2-.2.1-.4,0-.6-.2-.2-.4-.1-.6,0Z"/>
    <path class="cls-10" d="M136.9,494.3c0,0,.2.1.3.1s.2,0,.3-.1l2.3-2.3c.2-.2.2-.4,0-.6-.2-.2-.4-.2-.6,0l-2.1,2.1-.9-.9c-.2-.2-.4-.2-.6,0-.2.2-.2.4,0,.6l1.2,1.2Z"/>
  </g>
  <g class="cls-17">
    <path class="cls-10" d="M269.7,397.8c0-.4-.3-.7-.7-.7h-2c-.4,0-.7.3-.7.7s.3.7.7.7h2c.4,0,.7-.3.7-.7Z"/>
    <path class="cls-10" d="M268.8,393.3c-.3-.3-.7-.3-.9,0-.3.3-.3.7,0,.9l1.4,1.4c.3.3.7.3.9,0,.3-.3.3-.7,0-.9l-1.4-1.4Z"/>
    <path class="cls-10" d="M269.3,399.9l-1.4,1.4c-.3.3-.3.7,0,.9.3.3.7.3.9,0l1.4-1.4c.3-.3.3-.7,0-.9-.3-.3-.7-.3-.9,0Z"/>
    <path class="cls-10" d="M299.7,397.1h-2c-.4,0-.7.3-.7.7s.3.7.7.7h2c.4,0,.7-.3.7-.7s-.3-.7-.7-.7Z"/>
    <path class="cls-10" d="M296.5,395.7c.3.3.7.3.9,0l1.4-1.4c.3-.3.3-.7,0-.9-.3-.3-.7-.3-.9,0l-1.4,1.4c-.3.3-.3.7,0,.9Z"/>
    <path class="cls-10" d="M297.5,399.9c-.3-.3-.7-.3-.9,0-.3.3-.3.7,0,.9l1.4,1.4c.3.3.7.3.9,0,.3-.3.3-.7,0-.9l-1.4-1.4Z"/>
    <path class="cls-10" d="M289.7,395.1c-2.9,0-5.3-2.4-5.3-5.3s2.4-5.3,5.3-5.3,5.3,2.4,5.3,5.3-2.4,5.3-5.3,5.3ZM288.3,401.4c-1.9,2.6-3,5.8-3.2,9.1h-2v-6.7c1.1-.3,2-1.3,2-2.6s-1.2-2.7-2.7-2.7-2.7,1.2-2.7,2.7.8,2.3,2,2.6v6.7h-2c-.2-3.2-1.3-6.3-3.3-9-2.2-3.1-1.7-7.4,1.3-9.9,1.5-1.3,3.4-1.8,5.3-1.7,0,3.6,3,6.6,6.6,6.6.2,1.7-.3,3.5-1.3,4.9ZM282.4,402.4c-.7,0-1.3-.6-1.3-1.3s.6-1.3,1.3-1.3,1.3.6,1.3,1.3-.6,1.3-1.3,1.3ZM285.7,413.1h-6.7c-.4,0-.7-.3-.7-.7s.3-.7.7-.7c7.4,0,6.6,0,6.7,0,.4,0,.7.3.7.7s-.3.7-.7.7ZM282.4,415.7c-.9,0-1.6-.6-1.9-1.3h3.8c-.3.8-1,1.3-1.9,1.3ZM296.4,389.8c0-3.7-3-6.7-6.7-6.7s-5.9,2.3-6.5,5.4c-2.3-.2-4.5.5-6.3,2-3.5,2.9-4.1,8-1.5,11.7,1.8,2.5,2.8,5.4,3,8.4-.8.3-1.3,1-1.3,1.9s.9,2,2,2h0c.3,1.5,1.7,2.7,3.3,2.7s3-1.1,3.3-2.7h0c1.1,0,2-.9,2-2s-.5-1.6-1.3-1.9c.2-3.1,1.3-6,3-8.4,1.2-1.7,1.8-3.8,1.6-5.8,3.1-.6,5.4-3.3,5.4-6.5Z"/>
    <path class="cls-10" d="M291.7,387.6l-3,3-1-1c-.3-.3-.7-.3-.9,0-.3.3-.3.7,0,.9l1.5,1.5c.3.3.7.3.9,0l3.5-3.5c.3-.3.3-.7,0-.9-.3-.3-.7-.3-.9,0Z"/>
  </g>
  <g class="cls-16">
    <path class="cls-10" d="M246.7,564.6c-.6,0-.8.9-.2,1.2,3.8,1.6,8.1,1.6,11.9,0,.6-.3.4-1.2-.2-1.2,0,0-.2,0-.3,0-3.5,1.4-7.4,1.4-11,0,0,0-.2,0-.3,0M264.8,559.9c.4.2.9.3,1.4.3s1-.1,1.4-.3c1.3.5,2.3,1.9,2.3,3.5v.7c0,.9-.7,1.6-1.6,1.6h-4.4c-.9,0-1.6-.7-1.6-1.6v-.7c0-1.6,1-2.9,2.3-3.5ZM240,559.9c1.5.5,2.5,1.9,2.5,3.6v.7c0,.9-.7,1.6-1.6,1.6h-4.4c-.9,0-1.6-.7-1.6-1.6v-.7c0-1.7,1.1-3.1,2.5-3.6.4.2.8.2,1.2.2s.8,0,1.2-.2ZM256.8,556.7c.6.3,1.2.6,1.7,1-1.1,1.1-2.6,1.8-4.2,2.2,1-.9,1.8-2,2.5-3.2ZM248.2,556.7c.6,1.2,1.5,2.3,2.5,3.2-1.6-.3-3-1.1-4.2-2.2.5-.4,1.1-.7,1.7-1ZM253.1,555.8c.9,0,1.7.2,2.5.5-.6,1.2-1.5,2.2-2.5,3.1v-3.5ZM251.9,555.8v3.5c-1-.9-1.9-1.9-2.5-3.1.8-.3,1.7-.4,2.5-.5ZM266.2,555.3c1,0,1.9.8,1.9,1.9s-.9,1.9-1.9,1.9-1.9-.8-1.9-1.9.8-1.9,1.9-1.9ZM238.8,555.1c1,0,1.9.8,1.9,1.9s-.8,1.9-1.9,1.9-1.9-.8-1.9-1.9.8-1.9,1.9-1.9ZM266.2,554.1c-1.7,0-3.1,1.4-3.1,3.1s.2,1.4.6,1.9c-1.5.9-2.5,2.5-2.5,4.3v.7c0,1.5,1.2,2.8,2.8,2.8h4.4c1.6,0,2.8-1.3,2.8-2.8v-.7c0-1.9-1-3.5-2.5-4.3.4-.5.7-1.2.7-1.9,0-1.7-1.4-3.1-3.1-3.1ZM238.8,553.9c-1.7,0-3.1,1.4-3.1,3.1s.3,1.5.7,2c-1.6.8-2.6,2.5-2.6,4.4v.7c0,1.5,1.2,2.8,2.8,2.8h4.4c1.5,0,2.8-1.2,2.8-2.8v-.7c0-1.9-1-3.6-2.6-4.4.5-.5.7-1.3.7-2,0-1.7-1.4-3.1-3.1-3.1ZM258.1,552h3.1c-.1,1.8-.8,3.5-1.9,4.8-.6-.5-1.3-.9-2-1.2.4-1.1.7-2.3.8-3.6ZM253.1,552h3.7c0,1.1-.3,2.1-.7,3.1-1-.3-2-.5-3-.6v-2.5ZM248.2,552h3.7v2.5c-1,0-2.1.3-3,.6-.4-1-.6-2-.7-3.1ZM243.8,552h3.1c0,1.2.3,2.4.8,3.6-.7.3-1.4.7-2,1.2-1.1-1.3-1.7-3-1.9-4.8ZM256.2,547.7c.4,1,.6,2,.7,3.1h-3.7v-2.5c1,0,2.1-.3,3-.6ZM248.8,547.7c1,.3,2,.5,3,.6v2.5h-3.7c0-1.1.3-2.1.7-3.1ZM259.3,546c1.1,1.3,1.7,3,1.9,4.8h-3.1c0-1.2-.3-2.4-.8-3.6.7-.3,1.4-.7,2-1.2ZM245.7,546c.6.5,1.3.9,2,1.2-.4,1.1-.7,2.3-.8,3.6h-3.1c.1-1.8.8-3.5,1.9-4.8ZM251.9,543.5v3.5c-.9,0-1.7-.2-2.5-.5.6-1.2,1.5-2.2,2.5-3.1ZM253.1,543.5c1,.9,1.9,1.9,2.5,3.1-.8.3-1.7.4-2.5.5v-3.6ZM254.3,542.9c1.6.3,3,1.1,4.2,2.2-.5.4-1.1.7-1.7,1-.6-1.2-1.5-2.3-2.5-3.2ZM250.7,542.9c-1,.9-1.8,2-2.5,3.2-.6-.3-1.2-.6-1.7-1,1.1-1.1,2.6-1.9,4.2-2.2ZM252.5,541.4c-5.5,0-10,4.5-10,10s4.4,10,10,10,10-4.5,10-10-4.4-10-10-10ZM260,537.8c-.7,0-.8.8-.3,1.2,4.4,2.6,7.2,7.3,7.2,12.4s1.2.8,1.2,0c0-5.6-3-10.7-7.8-13.5,0,0-.2,0-.3,0ZM245,537.8c-.1,0-.2,0-.3,0-4.8,2.8-7.8,7.9-7.8,13.5,0,.8,1.2.8,1.2,0,0-5.1,2.7-9.8,7.2-12.4.5-.3.3-1.2-.3-1.2ZM251.6,534.6c.3.1.6.2.9.2s.6,0,1-.2c1.1.4,1.8,1.4,1.8,2.7v.6c0,.6-.5,1.1-1.1,1.1h-3.4c-.6,0-1.1-.5-1.1-1.1v-.6c0-1.3.8-2.3,1.8-2.7ZM252.5,530.8c.7,0,1.3.6,1.3,1.3s-.6,1.3-1.3,1.3-1.3-.6-1.3-1.3.6-1.3,1.3-1.3ZM252.5,529.6c-1.4,0-2.6,1.2-2.6,2.6s.2,1.1.5,1.6c-1.2.7-2,2-2,3.5v.6c0,1.3,1,2.3,2.3,2.3h3.4c1.3,0,2.3-1,2.3-2.3v-.6c0-1.5-.8-2.8-2-3.5.3-.4.5-1,.5-1.6,0-1.4-1.1-2.6-2.6-2.6Z"/>
  </g>
</svg>